<svg width="27" height="24" viewBox="0 0 27 24" fill="none" xmlns="http://www.w3.org/2000/svg">
<g clip-path="url(#clip0_1134_5078)">
<path d="M19.0712 8.94336H19.9782C20.0592 8.94336 20.1369 8.9753 20.1942 9.03216C20.2515 9.08902 20.2837 9.16614 20.2837 9.24655V9.80845C20.2837 9.88892 20.2515 9.9661 20.1942 10.0231C20.137 10.08 20.0592 10.1121 19.9782 10.1123H19.2447V9.88854C19.1352 9.88858 19.0266 9.86715 18.9254 9.82549C18.8242 9.78382 18.7322 9.72273 18.6548 9.64573L18.5446 9.5364L19.0712 8.94336Z" fill="#FEEDE1"/>
<path d="M19.0712 8.9438L18.544 9.53684L16.2797 9.01499L16.5929 8.18359L19.0712 8.9438Z" fill="#FEEDE1"/>
<path d="M16.593 8.18359L16.7038 8.21728L16.739 9.12051L16.2798 9.01499L16.593 8.18359Z" fill="#DD8C76"/>
<path d="M12.2572 4.96668C12.4009 4.85482 12.5824 4.80219 12.7642 4.81971C12.946 4.83723 13.114 4.92355 13.2333 5.06075L15.5822 7.76471L16.0068 7.90645L15.6123 8.95333L15.39 8.90566C15.0371 8.8294 14.7155 8.64957 14.467 8.38953L12.1809 6.00529C12.113 5.93415 12.0608 5.84975 12.0276 5.75746C11.9944 5.66517 11.981 5.56703 11.9881 5.4693C11.9953 5.37157 12.0229 5.27639 12.0693 5.18985C12.1156 5.10331 12.1796 5.0273 12.2572 4.96668Z" fill="#5297F4"/>
<path d="M15.6001 8.98867L15.6123 8.95498L16.0069 7.90811L16.0459 7.80513C16.0512 7.79101 16.0592 7.77805 16.0696 7.76702C16.0799 7.75598 16.0923 7.74708 16.1061 7.74082C16.1199 7.73456 16.1349 7.73106 16.15 7.73054C16.1652 7.73001 16.1803 7.73246 16.1945 7.73775L16.5827 7.88268C16.597 7.88798 16.61 7.89601 16.6211 7.90633C16.6323 7.91664 16.6412 7.92902 16.6476 7.94277C16.6539 7.95653 16.6574 7.97138 16.6579 7.98648C16.6584 8.00158 16.6559 8.01663 16.6506 8.03078L16.6192 8.11468L16.2503 9.09355L16.2048 9.21432C16.194 9.24274 16.1723 9.26577 16.1445 9.27839C16.1166 9.29101 16.0849 9.2922 16.0562 9.28169L15.668 9.13741C15.6536 9.13218 15.6404 9.12416 15.6292 9.11382C15.618 9.10348 15.6089 9.09102 15.6026 9.07718C15.5963 9.06333 15.5928 9.04837 15.5924 9.03317C15.592 9.01797 15.5946 9.00285 15.6001 8.98867Z" fill="#3985D8"/>
<path d="M13.0847 5.17389C12.9787 5.05182 12.8341 4.96915 12.6745 4.93947C12.5149 4.90978 12.3499 4.93484 12.2066 5.01054C12.2226 4.99528 12.2392 4.98066 12.2572 4.96668C12.4009 4.85482 12.5825 4.80219 12.7642 4.81971C12.946 4.83723 13.114 4.92355 13.2333 5.06075L15.5822 7.7647L16.0068 7.90645L15.9428 8.07489L15.4662 7.91535L13.0847 5.17389Z" fill="#F58634"/>
<path d="M13.0746 10.5938L17.9702 11.8866C18.1673 11.9387 18.3496 12.0354 18.5027 12.1694C18.6557 12.3033 18.7753 12.4706 18.852 12.6582C18.9287 12.8459 18.9604 13.0486 18.9447 13.2505C18.9289 13.4523 18.8661 13.6478 18.7612 13.8215L15.907 18.5435L14.3178 17.8443L16.6013 13.5354L11.9517 12.5712C11.7396 12.5272 11.5394 12.4389 11.3645 12.3122C11.1895 12.1854 11.0437 12.0231 10.9369 11.8361C10.8301 11.649 10.7647 11.4415 10.7451 11.2274C10.7255 11.0133 10.7521 10.7975 10.8231 10.5944H13.0746V10.5938Z" fill="#422C4F"/>
<path d="M14.5234 18.1656L14.6431 17.9883L15.5457 18.3862L15.333 18.7676L14.3267 18.4872C14.3889 18.3786 14.4535 18.2705 14.5234 18.1656Z" fill="#FEEDE1"/>
<path d="M14.7719 18.9415L14.8558 19.1538L14.7437 19.0756C14.6993 19.0445 14.6463 19.0278 14.5919 19.028H14.0648C14.1414 18.8438 14.2289 18.6643 14.3267 18.4902L15.333 18.7705L15.2734 18.878H14.8148C14.8071 18.8775 14.7993 18.8791 14.7924 18.8826C14.7854 18.886 14.7795 18.8912 14.7751 18.8976C14.7708 18.904 14.7682 18.9115 14.7677 18.9192C14.7671 18.9269 14.7686 18.9346 14.7719 18.9415Z" fill="white"/>
<path d="M15.9288 19.8533H13.7958L13.8349 19.7039C13.8953 19.4725 13.9721 19.2457 14.0648 19.025H14.592C14.6463 19.0249 14.6994 19.0416 14.7438 19.0727L14.8559 19.1509L14.772 18.9386C14.7687 18.9317 14.7672 18.924 14.7677 18.9164C14.7683 18.9088 14.7708 18.9014 14.7751 18.895C14.7793 18.8886 14.7851 18.8834 14.792 18.8799C14.7989 18.8764 14.8065 18.8747 14.8143 18.875H15.2735L15.6124 19.1928C15.7659 19.3359 15.9686 19.4155 16.1792 19.4153H16.4098C16.5174 19.4154 16.6229 19.4442 16.7154 19.4988C16.8078 19.5534 16.8837 19.6317 16.9351 19.7255L16.495 19.803C16.3081 19.8363 16.1186 19.8531 15.9288 19.8533Z" fill="#422C4F"/>
<path d="M15.9287 19.8537C16.1183 19.8537 16.3076 19.8371 16.4943 19.8041L16.9343 19.7266C16.9787 19.8075 17.0035 19.8976 17.0067 19.9897L16.3348 20.0533C16.2285 20.0628 16.1221 20.0673 16.0145 20.0673H13.7406L13.7951 19.8569L15.9287 19.8537Z" fill="white"/>
<path d="M14.6432 17.9863L15.5464 18.3836L15.4484 18.5597L14.4652 18.2558L14.6432 17.9863Z" fill="#422C4F"/>
<path d="M20.6277 10.1582H20.8589L21.4539 12.2462C21.919 13.8796 21.7316 15.6281 20.9306 17.1279L20.6405 17.2359L20.6277 10.1582Z" fill="#0E4B29"/>
<path d="M21.454 12.2462L20.8589 10.1582H21.0761L22.2969 14.6553C22.3503 14.8523 22.4677 15.0263 22.6309 15.1504C22.794 15.2745 22.9939 15.3418 23.1994 15.3417C23.2147 15.3417 23.2294 15.3478 23.2402 15.3585C23.251 15.3692 23.2571 15.3838 23.2571 15.3989V16.2577L20.9307 17.1279C21.7316 15.6281 21.9191 13.8796 21.454 12.2462Z" fill="#187D44"/>
<path d="M23.4166 23.9992C21.6216 23.9992 20.1665 22.5552 20.1665 20.774C20.1665 18.9928 21.6216 17.5488 23.4166 17.5488C25.2115 17.5488 26.6666 18.9928 26.6666 20.774C26.6666 22.5552 25.2115 23.9992 23.4166 23.9992Z" fill="#422C4F"/>
<path d="M23.4166 23.0963C22.1239 23.0963 21.0761 22.0565 21.0761 20.7738C21.0761 19.491 22.1239 18.4512 23.4166 18.4512C24.7092 18.4512 25.7571 19.491 25.7571 20.7738C25.7571 22.0565 24.7092 23.0963 23.4166 23.0963Z" fill="#495375"/>
<path d="M23.4166 22.6711C22.3613 22.6711 21.5059 21.8222 21.5059 20.775C21.5059 19.7278 22.3613 18.8789 23.4166 18.8789C24.4718 18.8789 25.3273 19.7278 25.3273 20.775C25.3273 21.8222 24.4718 22.6711 23.4166 22.6711Z" fill="#C7D2D7"/>
<path d="M23.4159 18.8789C23.7635 18.8783 24.1047 18.9722 24.4023 19.1503C24.2664 19.1165 24.1268 19.0995 23.9866 19.0995C23.5388 19.0995 23.1094 19.276 22.7927 19.5902C22.4761 19.9044 22.2982 20.3306 22.2982 20.775C22.2982 21.2194 22.4761 21.6455 22.7927 21.9598C23.1094 22.274 23.5388 22.4505 23.9866 22.4505C24.1268 22.4505 24.2664 22.4334 24.4023 22.3996C24.15 22.5503 23.866 22.641 23.5725 22.6648C23.279 22.6885 22.9839 22.6446 22.7104 22.5365C22.4368 22.4284 22.1921 22.259 21.9954 22.0415C21.7987 21.8241 21.6553 21.5644 21.5764 21.2829C21.4975 21.0013 21.4853 20.7055 21.5406 20.4185C21.596 20.1315 21.7175 19.8611 21.8956 19.6283C22.0736 19.3956 22.3035 19.2069 22.5673 19.0769C22.831 18.9469 23.1214 18.8791 23.4159 18.8789Z" fill="#99A3B0"/>
<path d="M23.4166 21.6105C22.951 21.6105 22.5736 21.236 22.5736 20.774C22.5736 20.312 22.951 19.9375 23.4166 19.9375C23.8821 19.9375 24.2595 20.312 24.2595 20.774C24.2595 21.236 23.8821 21.6105 23.4166 21.6105Z" fill="#99A3B0"/>
<path d="M23.0127 21.1759C22.7898 20.9547 22.7898 20.5961 23.0127 20.3749C23.2356 20.1538 23.597 20.1538 23.8198 20.3749C24.0427 20.5961 24.0427 20.9547 23.8198 21.1759C23.597 21.397 23.2356 21.397 23.0127 21.1759Z" fill="#0E4B29"/>
<path d="M6.72113 23.9992C4.92617 23.9992 3.47106 22.5552 3.47106 20.774C3.47106 18.9928 4.92617 17.5488 6.72113 17.5488C8.51609 17.5488 9.97119 18.9928 9.97119 20.774C9.97119 22.5552 8.51609 23.9992 6.72113 23.9992Z" fill="#422C4F"/>
<path d="M6.72102 23.0963C5.42839 23.0963 4.38051 22.0565 4.38051 20.7738C4.38051 19.491 5.42839 18.4512 6.72102 18.4512C8.01364 18.4512 9.06152 19.491 9.06152 20.7738C9.06152 22.0565 8.01364 23.0963 6.72102 23.0963Z" fill="#495375"/>
<path d="M6.72113 22.6711C5.66587 22.6711 4.81042 21.8222 4.81042 20.775C4.81042 19.7278 5.66587 18.8789 6.72113 18.8789C7.77638 18.8789 8.63184 19.7278 8.63184 20.775C8.63184 21.8222 7.77638 22.6711 6.72113 22.6711Z" fill="#C7D2D7"/>
<path d="M6.72049 18.8789C7.06808 18.8784 7.40919 18.9723 7.70691 19.1503C7.57096 19.1165 7.43135 19.0995 7.2912 19.0995C6.8434 19.0995 6.41394 19.276 6.09729 19.5902C5.78065 19.9044 5.60276 20.3306 5.60276 20.775C5.60276 21.2194 5.78065 21.6455 6.09729 21.9598C6.41394 22.274 6.8434 22.4505 7.2912 22.4505C7.43135 22.4505 7.57096 22.4334 7.70691 22.3996C7.45458 22.5503 7.17058 22.641 6.87707 22.6648C6.58357 22.6885 6.2885 22.6446 6.01492 22.5365C5.74134 22.4284 5.49664 22.259 5.29993 22.0415C5.10322 21.8241 4.95983 21.5644 4.88095 21.2829C4.80207 21.0013 4.78983 20.7055 4.8452 20.4185C4.90056 20.1315 5.02203 19.8611 5.20012 19.6283C5.37821 19.3956 5.60809 19.2069 5.87183 19.0769C6.13556 18.9469 6.42601 18.8791 6.72049 18.8789Z" fill="#99A3B0"/>
<path d="M6.72102 21.6105C6.25548 21.6105 5.87808 21.236 5.87808 20.774C5.87808 20.312 6.25548 19.9375 6.72102 19.9375C7.18657 19.9375 7.56396 20.312 7.56396 20.774C7.56396 21.236 7.18657 21.6105 6.72102 21.6105Z" fill="#99A3B0"/>
<path d="M6.31741 21.1739C6.09453 20.9527 6.09453 20.5941 6.31741 20.373C6.54028 20.1518 6.90164 20.1518 7.12452 20.373C7.3474 20.5941 7.3474 20.9527 7.12452 21.1739C6.90164 21.3951 6.54028 21.3951 6.31741 21.1739Z" fill="#0E4B29"/>
<path d="M23.2596 16.5025C21.5853 16.5552 20.1537 17.7178 19.7079 19.3202L19.6355 19.5777L19.5567 19.6158L19.7079 19.073C20.1562 17.4706 21.5853 16.308 23.2596 16.2559C23.3025 16.2559 23.3461 16.2559 23.3877 16.2559C24.0968 16.2543 24.7938 16.4387 25.408 16.7904L25.2971 16.9735C24.7099 16.6613 24.0539 16.4986 23.3877 16.5C23.3442 16.5006 23.3025 16.5012 23.2596 16.5025Z" fill="white"/>
<path d="M22.9535 17.9622L19.6355 19.5779L19.7079 19.3237C20.1563 17.7212 21.5853 16.5587 23.2596 16.5059C23.3026 16.5059 23.3461 16.5059 23.3878 16.5059C24.0537 16.502 24.7102 16.6621 25.2985 16.9718L24.7028 17.9596L22.9535 17.9622Z" fill="#F2C8C2"/>
<path d="M19.3997 19.8625H20.9511C21.6476 19.8622 22.3156 19.588 22.8086 19.0998C23.0526 18.8578 23.3422 18.6659 23.661 18.535C23.9797 18.4042 24.3213 18.3369 24.6662 18.337H26.5045L25.9229 17.7592C25.251 17.0925 24.3398 16.7176 23.3896 16.7168C22.7868 16.7169 22.1937 16.8678 21.6651 17.1556C21.1366 17.4433 20.6897 17.8586 20.3656 18.3631L19.3997 19.8625Z" fill="#187D44"/>
<path d="M20.6277 10.1582L21.2227 12.2462C21.6998 13.9205 21.4905 15.7141 20.6405 17.2359L20.3439 17.7679C19.9309 18.5071 19.326 19.1232 18.5921 19.5522C17.8582 19.9812 17.022 20.2074 16.1702 20.2075H1.53082L2.05477 18.3184C2.57221 16.4548 3.77995 14.8541 5.43615 13.8366L6.38413 13.255H14.5285V13.6078C14.5287 13.7221 14.4926 13.8336 14.4253 13.9265C14.3581 14.0193 14.2631 14.0889 14.1538 14.1251C13.7269 14.268 13.3494 14.5278 13.0648 14.8744C12.7802 15.221 12.6002 15.6404 12.5454 16.0842C12.5044 16.4172 12.535 16.7551 12.6353 17.0755C12.7356 17.3959 12.9033 17.6916 13.1274 17.9429C13.3514 18.1942 13.6266 18.3955 13.9348 18.5334C14.2431 18.6713 14.5773 18.7428 14.9154 18.743H16.1061C16.6683 18.7434 17.2214 18.6029 17.7141 18.3344C18.2068 18.0659 18.6232 17.6782 18.9245 17.2073L19.4766 16.3448C20.0841 15.3928 20.291 14.2423 20.0531 13.1406L19.4126 10.1582H20.6277Z" fill="#187D44"/>
<path d="M6.38417 13.2561H15.187V12.2188H8.16741C7.92581 12.2188 7.68665 12.2668 7.464 12.3599C7.24136 12.453 7.03973 12.5894 6.87097 12.7609L6.38417 13.2561Z" fill="#422C4F"/>
<path d="M11.502 20.3503H15.4541C16.3315 20.3502 17.1929 20.1171 17.9489 19.6751C18.7049 19.2332 19.328 18.5985 19.7534 17.837L20.0506 17.305C20.4828 16.5359 20.7579 15.6897 20.86 14.815C20.9621 13.9402 20.8892 13.054 20.6456 12.2072C20.5675 11.931 20.545 11.6422 20.5794 11.3573C20.6138 11.0725 20.7044 10.7971 20.8461 10.547C20.8567 10.5305 20.8637 10.5121 20.8669 10.4929C20.87 10.4736 20.8692 10.4539 20.8644 10.435C20.8597 10.4161 20.8511 10.3983 20.8392 10.3828C20.8273 10.3673 20.8123 10.3543 20.7952 10.3447C20.7781 10.3352 20.7592 10.3291 20.7396 10.327C20.7201 10.3249 20.7003 10.3268 20.6815 10.3325C20.6628 10.3382 20.6453 10.3477 20.6304 10.3603C20.6154 10.3729 20.6031 10.3884 20.5944 10.4059C20.2705 10.9777 20.1887 11.6538 20.367 12.2854C20.6001 13.0962 20.6698 13.9447 20.5719 14.7823C20.4741 15.6198 20.2107 16.43 19.7969 17.1664L19.5003 17.6978C19.0999 18.4146 18.5134 19.0119 17.8018 19.4279C17.0902 19.8439 16.2794 20.0634 15.4535 20.0636H11.5014C11.4816 20.0623 11.4618 20.065 11.4431 20.0716C11.4244 20.0782 11.4073 20.0886 11.3928 20.102C11.3784 20.1155 11.3668 20.1317 11.3589 20.1498C11.3511 20.1678 11.347 20.1873 11.347 20.2069C11.347 20.2266 11.3511 20.2461 11.3589 20.2641C11.3668 20.2821 11.3784 20.2984 11.3928 20.3118C11.4073 20.3253 11.4244 20.3356 11.4431 20.3422C11.4618 20.3488 11.4816 20.3516 11.5014 20.3503H11.502Z" fill="#F58634"/>
<path d="M11.3585 19.6465H2.30392L2.44227 19.7844C2.66317 20.0036 2.96258 20.127 3.27496 20.1277H10.4054C10.5913 20.1277 10.7746 20.0841 10.9404 20.0005C11.1061 19.9169 11.2496 19.7956 11.3591 19.6465H11.3585Z" fill="#0E4B29"/>
<path d="M7.40453 21.1238C6.32274 21.1238 5.44578 20.2536 5.44578 19.1801C5.44578 18.1066 6.32274 17.2363 7.40453 17.2363C8.48632 17.2363 9.36328 18.1066 9.36328 19.1801C9.36328 20.2536 8.48632 21.1238 7.40453 21.1238Z" fill="#99A3B0"/>
<path d="M7.40384 20.6736C7.70183 20.6737 7.99316 20.5861 8.241 20.4219C8.48883 20.2577 8.68202 20.0243 8.79615 19.7511C8.91027 19.478 8.9402 19.1774 8.88214 18.8873C8.82408 18.5973 8.68065 18.3308 8.46998 18.1217C8.25932 17.9125 7.99088 17.7701 7.69862 17.7124C7.40637 17.6546 7.10342 17.6842 6.8281 17.7973C6.55278 17.9105 6.31745 18.1021 6.15189 18.3479C5.98632 18.5938 5.89794 18.8829 5.89794 19.1786C5.89845 19.5748 6.05725 19.9547 6.33953 20.2349C6.62181 20.5152 7.00455 20.6729 7.40384 20.6736ZM7.40384 17.8425C7.66988 17.8425 7.92994 17.9208 8.15114 18.0675C8.37235 18.2141 8.54476 18.4226 8.64656 18.6665C8.74837 18.9104 8.77501 19.1788 8.72311 19.4377C8.67121 19.6967 8.5431 19.9345 8.35498 20.1212C8.16686 20.3079 7.92718 20.435 7.66626 20.4865C7.40533 20.538 7.13487 20.5116 6.88908 20.4105C6.64329 20.3095 6.43321 20.1384 6.28541 19.9189C6.13761 19.6994 6.05872 19.4413 6.05872 19.1773C6.05872 18.8233 6.20043 18.4838 6.45269 18.2335C6.70495 17.9831 7.04709 17.8425 7.40384 17.8425Z" fill="#495375"/>
<path d="M6.42575 19.2605H8.38258C8.40381 19.2605 8.42418 19.2521 8.4392 19.2372C8.45421 19.2223 8.46265 19.2021 8.46265 19.181C8.46265 19.1599 8.45421 19.1397 8.4392 19.1248C8.42418 19.1099 8.40381 19.1016 8.38258 19.1016H6.42575C6.40452 19.1016 6.38415 19.1099 6.36914 19.1248C6.35412 19.1397 6.34568 19.1599 6.34568 19.181C6.34568 19.2021 6.35412 19.2223 6.36914 19.2372C6.38415 19.2521 6.40452 19.2605 6.42575 19.2605Z" fill="#495375"/>
<path d="M6.59429 18.9408H8.2142C8.23428 18.939 8.25296 18.9298 8.26657 18.9151C8.28017 18.9003 8.28772 18.881 8.28772 18.861C8.28772 18.841 8.28017 18.8217 8.26657 18.807C8.25296 18.7922 8.23428 18.783 8.2142 18.7812H6.59429C6.57421 18.783 6.55552 18.7922 6.54192 18.807C6.52831 18.8217 6.52076 18.841 6.52076 18.861C6.52076 18.881 6.52831 18.9003 6.54192 18.9151C6.55552 18.9298 6.57421 18.939 6.59429 18.9408Z" fill="#495375"/>
<path d="M6.81843 18.6238H7.98805C8.00928 18.6238 8.02965 18.6154 8.04466 18.6005C8.05968 18.5856 8.06812 18.5654 8.06812 18.5443C8.06812 18.5232 8.05968 18.503 8.04466 18.4881C8.02965 18.4732 8.00928 18.4648 7.98805 18.4648H6.81843C6.7972 18.4648 6.77683 18.4732 6.76182 18.4881C6.7468 18.503 6.73837 18.5232 6.73837 18.5443C6.73837 18.5654 6.7468 18.5856 6.76182 18.6005C6.77683 18.6154 6.7972 18.6238 6.81843 18.6238Z" fill="#495375"/>
<path d="M7.09006 18.3054H7.71522C7.73646 18.3054 7.75682 18.297 7.77184 18.2821C7.78685 18.2672 7.79529 18.247 7.79529 18.2259C7.79529 18.2049 7.78685 18.1847 7.77184 18.1698C7.75682 18.1549 7.73646 18.1465 7.71522 18.1465H7.08686C7.06562 18.1465 7.04526 18.1549 7.03024 18.1698C7.01523 18.1847 7.00679 18.2049 7.00679 18.2259C7.00679 18.247 7.01523 18.2672 7.03024 18.2821C7.04526 18.297 7.06562 18.3054 7.08686 18.3054H7.09006Z" fill="#495375"/>
<path d="M6.59421 19.5769H8.21412C8.23536 19.5769 8.25572 19.5685 8.27074 19.5536C8.28575 19.5387 8.29419 19.5185 8.29419 19.4974C8.29419 19.4763 8.28575 19.4561 8.27074 19.4412C8.25572 19.4263 8.23536 19.418 8.21412 19.418H6.59421C6.57298 19.418 6.55261 19.4263 6.5376 19.4412C6.52258 19.4561 6.51415 19.4763 6.51415 19.4974C6.51415 19.5185 6.52258 19.5387 6.5376 19.5536C6.55261 19.5685 6.57298 19.5769 6.59421 19.5769Z" fill="#495375"/>
<path d="M6.81843 19.8952H7.98805C8.00928 19.8952 8.02965 19.8869 8.04466 19.872C8.05968 19.8571 8.06812 19.8369 8.06812 19.8158C8.06812 19.7947 8.05968 19.7745 8.04466 19.7596C8.02965 19.7447 8.00928 19.7363 7.98805 19.7363H6.81843C6.7972 19.7363 6.77683 19.7447 6.76182 19.7596C6.7468 19.7745 6.73837 19.7947 6.73837 19.8158C6.73837 19.8369 6.7468 19.8571 6.76182 19.872C6.77683 19.8869 6.7972 19.8952 6.81843 19.8952Z" fill="#495375"/>
<path d="M7.09006 20.2136H7.71522C7.73646 20.2136 7.75682 20.2052 7.77184 20.1903C7.78685 20.1754 7.79529 20.1552 7.79529 20.1341C7.79529 20.1131 7.78685 20.0929 7.77184 20.078C7.75682 20.0631 7.73646 20.0547 7.71522 20.0547H7.08686C7.06562 20.0547 7.04526 20.0631 7.03024 20.078C7.01523 20.0929 7.00679 20.1131 7.00679 20.1341C7.00679 20.1552 7.01523 20.1754 7.03024 20.1903C7.04526 20.2052 7.06562 20.2136 7.08686 20.2136H7.09006Z" fill="#495375"/>
<path d="M5.29015 14.9701C6.22214 14.4084 7.2916 14.1114 8.382 14.1113H8.74774C10.6053 14.1113 12.1804 15.619 12.1791 17.4624C12.1795 18.2648 11.8882 19.0405 11.3586 19.647H2.30398L2.65051 18.4215C3.05847 16.981 4.00177 15.7475 5.29015 14.9701Z" fill="#F58634"/>
<path d="M5.81274 16.2211C6.49509 15.8093 7.2784 15.5916 8.07702 15.5918H8.34476C9.70461 15.5918 10.8582 16.6959 10.8569 18.0453C10.8576 18.6329 10.6445 19.2011 10.2568 19.6452H3.62532L3.88153 18.7477C4.17978 17.6933 4.86992 16.7903 5.81274 16.2211Z" fill="#187D44"/>
<path d="M5.7711 19.1508H8.8194C8.84113 19.1489 8.86137 19.139 8.87612 19.1231C8.89086 19.1071 8.89905 19.0863 8.89905 19.0646C8.89905 19.043 8.89086 19.0221 8.87612 19.0062C8.86137 18.9902 8.84113 18.9804 8.8194 18.9785H5.7711C5.74937 18.9804 5.72913 18.9902 5.71438 19.0062C5.69964 19.0221 5.69145 19.043 5.69145 19.0646C5.69145 19.0863 5.69964 19.1071 5.71438 19.1231C5.72913 19.139 5.74937 19.1489 5.7711 19.1508Z" fill="#495375"/>
<path d="M5.86534 18.8112H8.91299C8.92502 18.8123 8.93712 18.8108 8.94855 18.8069C8.95997 18.8031 8.97046 18.7969 8.97936 18.7888C8.98825 18.7807 8.99535 18.7709 9.0002 18.7599C9.00506 18.7489 9.00757 18.7371 9.00757 18.7251C9.00757 18.7131 9.00506 18.7013 9.0002 18.6903C8.99535 18.6794 8.98825 18.6695 8.97936 18.6614C8.97046 18.6533 8.95997 18.6472 8.94855 18.6433C8.93712 18.6394 8.92502 18.638 8.91299 18.639H5.86534C5.85331 18.638 5.8412 18.6394 5.82978 18.6433C5.81836 18.6472 5.80787 18.6533 5.79897 18.6614C5.79008 18.6695 5.78298 18.6794 5.77813 18.6903C5.77327 18.7013 5.77076 18.7131 5.77076 18.7251C5.77076 18.7371 5.77327 18.7489 5.77813 18.7599C5.78298 18.7709 5.79008 18.7807 5.79897 18.7888C5.80787 18.7969 5.81836 18.8031 5.82978 18.8069C5.8412 18.8108 5.85331 18.8123 5.86534 18.8112Z" fill="#495375"/>
<path d="M5.95886 18.4704H9.00716C9.03009 18.4704 9.05209 18.4614 9.0683 18.4453C9.08452 18.4292 9.09363 18.4074 9.09363 18.3846C9.09363 18.3619 9.08452 18.3401 9.0683 18.324C9.05209 18.3079 9.03009 18.2988 9.00716 18.2988H5.95886C5.93593 18.2988 5.91393 18.3079 5.89772 18.324C5.8815 18.3401 5.87239 18.3619 5.87239 18.3846C5.87239 18.4074 5.8815 18.4292 5.89772 18.4453C5.91393 18.4614 5.93593 18.4704 5.95886 18.4704Z" fill="#495375"/>
<path d="M6.04976 18.1296H9.10126C9.12299 18.1277 9.14323 18.1179 9.15798 18.1019C9.17273 18.086 9.18091 18.0651 9.18091 18.0435C9.18091 18.0218 9.17273 18.001 9.15798 17.985C9.14323 17.9691 9.12299 17.9592 9.10126 17.9573H6.04976C6.03774 17.9563 6.02563 17.9578 6.0142 17.9616C6.00278 17.9655 5.99229 17.9717 5.9834 17.9798C5.9745 17.9879 5.96741 17.9977 5.96255 18.0087C5.95769 18.0197 5.95519 18.0315 5.95519 18.0435C5.95519 18.0555 5.95769 18.0673 5.96255 18.0783C5.96741 18.0892 5.9745 18.0991 5.9834 18.1072C5.99229 18.1153 6.00278 18.1214 6.0142 18.1253C6.02563 18.1292 6.03774 18.1306 6.04976 18.1296Z" fill="#495375"/>
<path d="M6.14656 17.7898H9.19485C9.20688 17.7908 9.21899 17.7893 9.23041 17.7855C9.24183 17.7816 9.25232 17.7754 9.26122 17.7673C9.27011 17.7592 9.27721 17.7494 9.28207 17.7384C9.28692 17.7275 9.28943 17.7156 9.28943 17.7036C9.28943 17.6917 9.28692 17.6798 9.28207 17.6688C9.27721 17.6579 9.27011 17.648 9.26122 17.6399C9.25232 17.6318 9.24183 17.6257 9.23041 17.6218C9.21899 17.6179 9.20688 17.6165 9.19485 17.6175H6.14656C6.12483 17.6194 6.10459 17.6292 6.08984 17.6452C6.07509 17.6611 6.06691 17.682 6.06691 17.7036C6.06691 17.7253 6.07509 17.7461 6.08984 17.7621C6.10459 17.778 6.12483 17.7879 6.14656 17.7898Z" fill="#495375"/>
<path d="M14.5286 13.2559H6.38419C6.47353 13.3445 6.57959 13.4147 6.69632 13.4626C6.81304 13.5105 6.93813 13.535 7.06443 13.5349H13.7747C14.0516 13.5347 14.3192 13.4357 14.5286 13.2559Z" fill="#0E4B29"/>
<path d="M19.4145 10.1585H21.8414V8.61523H21.3143C20.8621 8.61537 20.4155 8.71365 20.0057 8.90318L19.6156 9.08369C19.4943 9.14001 19.3967 9.23674 19.3398 9.35704C19.283 9.47735 19.2704 9.61364 19.3043 9.7422L19.4145 10.1585Z" fill="#187D44"/>
<path d="M21.8421 8.61523H22.097V10.1585H21.8421V8.61523Z" fill="#F58634"/>
<path d="M22.097 8.61523H22.2271V10.1585H22.097V8.61523Z" fill="white"/>
<path d="M2.54805 13.0338C2.53174 13.0177 2.52255 12.9958 2.52249 12.973C2.52243 12.9502 2.53151 12.9283 2.54773 12.9121C2.56396 12.8959 2.58599 12.8868 2.609 12.8867C2.632 12.8867 2.65408 12.8957 2.67039 12.9118L3.39612 13.6319H3.15143L2.54805 13.0338Z" fill="#C7D2D7"/>
<path d="M3.39604 13.6328L4.57206 14.7998C4.5801 14.8078 4.58647 14.8173 4.59082 14.8277C4.59517 14.8381 4.59741 14.8493 4.59741 14.8605C4.59741 14.8718 4.59517 14.883 4.59082 14.8934C4.58647 14.9038 4.5801 14.9133 4.57206 14.9212C4.56407 14.9293 4.55455 14.9357 4.54405 14.94C4.53355 14.9444 4.52227 14.9467 4.51089 14.9467C4.4995 14.9467 4.48823 14.9444 4.47773 14.94C4.46723 14.9357 4.4577 14.9293 4.44972 14.9212L3.15136 13.6328H3.39604Z" fill="white"/>
<path d="M6.94656 13.9605H11.8319C11.8685 13.9581 11.9029 13.9419 11.928 13.9153C11.9531 13.8887 11.967 13.8536 11.967 13.8172C11.967 13.7807 11.9531 13.7456 11.928 13.719C11.9029 13.6924 11.8685 13.6762 11.8319 13.6738H6.94656C6.77484 13.674 6.60478 13.6404 6.44623 13.575C6.28769 13.5095 6.1438 13.4135 6.02291 13.2924C5.8752 13.1449 5.69944 13.0279 5.50581 12.9482C5.31218 12.8686 5.10454 12.8278 4.89493 12.8284H0.144099C0.124322 12.8271 0.104485 12.8299 0.0858164 12.8365C0.0671492 12.8431 0.0500498 12.8534 0.0355759 12.8669C0.021102 12.8803 0.0095644 12.8966 0.00167656 12.9146C-0.00621223 12.9326 -0.0102825 12.9521 -0.0102825 12.9718C-0.0102825 12.9914 -0.00621223 13.0109 0.00167656 13.0289C0.0095644 13.047 0.021102 13.0632 0.0355759 13.0767C0.0500498 13.0901 0.0671492 13.1005 0.0858164 13.1071C0.104485 13.1137 0.124322 13.1164 0.144099 13.1151H4.89685C5.06858 13.1149 5.23863 13.1485 5.39718 13.214C5.55573 13.2794 5.69961 13.3755 5.8205 13.4965C5.96809 13.6437 6.14356 13.7605 6.33682 13.8401C6.53008 13.9197 6.7373 13.9607 6.94656 13.9605Z" fill="white"/>
<path d="M20.6284 10.1582H19.4146L19.4428 10.2885H20.6655L20.6284 10.1582Z" fill="#0E4B29"/>
<path d="M13.0745 10.5938L17.1572 11.8046C17.3681 11.8672 17.5618 11.9767 17.7236 12.1249C17.8853 12.2731 18.0108 12.456 18.0904 12.6596C18.1701 12.8633 18.2018 13.0823 18.1832 13.2999C18.1645 13.5176 18.096 13.7282 17.9829 13.9155L15.1857 18.5435L13.5965 17.8443L15.88 13.5354L11.2297 12.5712C11.0178 12.5271 10.8177 12.4387 10.6429 12.3118C10.468 12.185 10.3224 12.0227 10.2157 11.8357C10.1089 11.6487 10.0436 11.4412 10.024 11.2272C10.0043 11.0132 10.0308 10.7975 10.1018 10.5944H13.0745V10.5938Z" fill="#454F6B"/>
<path d="M13.8002 18.1656L13.9213 17.9883L14.8251 18.3843L14.6124 18.7657L13.6081 18.4879C13.667 18.3786 13.7323 18.2705 13.8002 18.1656Z" fill="#F2C9AD"/>
<path d="M14.0507 18.9415L14.1346 19.1538L14.0225 19.0756C13.978 19.0447 13.925 19.0281 13.8707 19.028H13.3429C13.4198 18.8438 13.5075 18.6642 13.6055 18.4902L14.6118 18.7705L14.551 18.8805H14.0923C14.085 18.8805 14.0778 18.8823 14.0713 18.8857C14.0649 18.8891 14.0593 18.894 14.0552 18.9001C14.0511 18.9061 14.0485 18.913 14.0478 18.9202C14.047 18.9275 14.048 18.9348 14.0507 18.9415Z" fill="white"/>
<path d="M15.2094 19.8532H13.0765L13.1155 19.7039C13.176 19.4726 13.2527 19.2458 13.3449 19.025H13.8707C13.9251 19.0251 13.9781 19.0417 14.0225 19.0727L14.1346 19.1509L14.0507 18.9386C14.0474 18.9317 14.046 18.9241 14.0465 18.9165C14.047 18.9089 14.0495 18.9016 14.0536 18.8952C14.0578 18.8889 14.0636 18.8837 14.0703 18.8801C14.0771 18.8766 14.0847 18.8748 14.0924 18.875H14.551L14.8892 19.1954C15.0428 19.3383 15.2455 19.4179 15.4561 19.4178H15.6873C15.7948 19.4179 15.9004 19.4468 15.9928 19.5013C16.0853 19.5559 16.1612 19.6342 16.2125 19.728L15.7725 19.8056C15.5866 19.8378 15.3982 19.8537 15.2094 19.8532Z" fill="#422C4F"/>
<path d="M15.2095 19.8537C15.3991 19.8537 15.5884 19.8371 15.775 19.8041L16.2151 19.7266C16.2595 19.8075 16.2843 19.8976 16.2875 19.9897L15.6156 20.0533C15.5092 20.0628 15.4029 20.0673 15.2953 20.0673H13.0214L13.0758 19.8569L15.2095 19.8537Z" fill="white"/>
<path d="M13.922 17.9863L14.8245 18.3836L14.7271 18.5597L13.7439 18.2558L13.922 17.9863Z" fill="#422C4F"/>
<path d="M13.9802 3.42454L14.1038 2.72852C14.124 2.61578 14.1835 2.51367 14.2719 2.44011C14.3603 2.36654 14.472 2.3262 14.5874 2.32617H15.292L15.2279 2.6567C15.1819 2.8959 15.1862 3.14196 15.2407 3.37941L15.2734 3.51416C15.2765 3.52754 15.2765 3.54144 15.2734 3.55482C15.2703 3.56821 15.2643 3.58074 15.2557 3.59148C15.2471 3.60222 15.2361 3.6109 15.2237 3.61689C15.2112 3.62287 15.1976 3.62599 15.1837 3.62603H15.0409C14.9981 3.77905 14.918 3.91928 14.8078 4.0344C14.6975 4.14951 14.5604 4.23598 14.4086 4.2862C14.2568 4.33642 14.0949 4.34886 13.9371 4.32241C13.7792 4.29596 13.6304 4.23145 13.5036 4.13453L12.6312 3.46903L13.0956 3.78939C13.174 3.84341 13.2647 3.877 13.3596 3.88708C13.4545 3.89716 13.5504 3.88339 13.6385 3.84706C13.7266 3.81072 13.804 3.75298 13.8637 3.67914C13.9235 3.60531 13.9635 3.51775 13.9802 3.42454Z" fill="#F2C9AD"/>
<path d="M15.3375 2.08789L15.2927 2.32625H14.5881C14.4727 2.32628 14.361 2.36662 14.2726 2.44019C14.1842 2.51375 14.1247 2.61586 14.1045 2.7286L13.9809 3.42462C13.9642 3.51793 13.9242 3.60559 13.8644 3.67951C13.8047 3.75343 13.7271 3.81124 13.6389 3.84758C13.5508 3.88393 13.4548 3.89766 13.3598 3.88751C13.2649 3.87735 13.174 3.84363 13.0957 3.78947L12.6326 3.46784V2.08789H15.3375Z" fill="#FEEDE1"/>
<path d="M12.6319 3.46875L13.5043 4.13362L13.3883 4.46478L12.6319 3.46875Z" fill="#422C4F"/>
<path d="M12.0215 4.38723L12.632 3.46875L13.3884 4.46478L13.1905 5.02794L12.0215 4.38723Z" fill="#F2C9AD"/>
<path d="M14.7661 2.87564C14.7533 2.95573 14.7776 3.02565 14.8212 3.03264C14.8648 3.03964 14.9102 2.98116 14.923 2.9017C14.9359 2.82225 14.9122 2.75169 14.8686 2.7447C14.825 2.73771 14.7796 2.79682 14.7661 2.87564Z" fill="#422C4F"/>
<path d="M14.973 2.59582C14.9389 2.57624 14.8999 2.56673 14.8605 2.56842C14.8211 2.57011 14.7831 2.58292 14.7508 2.60536C14.6829 2.64985 14.6227 2.54179 14.6867 2.49794C14.7383 2.46415 14.7983 2.4453 14.8601 2.4435C14.9219 2.4417 14.983 2.45703 15.0364 2.48777C15.1069 2.52718 15.0435 2.63523 14.9724 2.59582H14.973Z" fill="#422C4F"/>
<path d="M14.802 3.36197L14.6611 3.41028C14.4544 3.4808 14.2311 3.48745 14.0206 3.42935L13.6683 3.33083L13.7509 3.16747L14.0212 3.2412C14.2318 3.2991 14.4552 3.29223 14.6617 3.2215L14.8027 3.17319C14.928 3.13066 15.0565 3.09794 15.187 3.07531L15.2376 3.06641L15.2837 3.24819L15.187 3.26282C15.0562 3.28584 14.9275 3.31899 14.802 3.36197Z" fill="white"/>
<path d="M13.669 3.33199L14.0213 3.43052C14.2318 3.48862 14.4552 3.48197 14.6618 3.41145L14.8027 3.36314C14.928 3.32041 15.0565 3.28746 15.187 3.26462L15.2838 3.25L15.2985 3.30975C15.3256 3.41486 15.3201 3.52566 15.2825 3.62756L15.2037 3.84368C15.136 4.02895 15.0148 4.19037 14.8554 4.3079C14.696 4.42543 14.5053 4.49387 14.307 4.50473C14.0533 4.51805 13.8039 4.43638 13.6081 4.2759L13.3148 4.03818L13.669 3.33199Z" fill="#81D3CF"/>
<path opacity="0.3" d="M14.0135 3.24175L13.9802 3.42735C13.9561 3.56361 13.8824 3.68632 13.773 3.77211C13.6636 3.85791 13.5263 3.9008 13.3871 3.89263L13.7516 3.16992L14.0135 3.24175Z" fill="#422C4F"/>
<path d="M13.5044 3.62342L13.7708 4.37727C13.7728 4.383 13.7733 4.38914 13.7723 4.39512C13.7712 4.4011 13.7687 4.4067 13.7648 4.41142C13.761 4.41613 13.756 4.41979 13.7503 4.42204C13.7446 4.4243 13.7385 4.42508 13.7324 4.42431C13.6342 4.41267 13.5401 4.37845 13.4576 4.32438C13.3751 4.27031 13.3065 4.19788 13.2571 4.11285L12.9189 3.53125L13.5044 3.62342Z" fill="#454F6B"/>
<path d="M13.7651 2.47005L13.6177 3.29636C13.612 3.32946 13.5989 3.36089 13.5795 3.38842C13.5601 3.41595 13.5348 3.4389 13.5055 3.45564C13.4761 3.47239 13.4434 3.48252 13.4097 3.48531C13.376 3.4881 13.342 3.48349 13.3103 3.47179L11.8633 2.93977V1.91133C11.8633 1.66028 11.9132 1.41169 12.01 1.17975C12.1068 0.947816 12.2488 0.737083 12.4277 0.559592C12.6066 0.3821 12.819 0.241325 13.0528 0.145309C13.2865 0.049293 13.5371 -8.33838e-05 13.79 1.05701e-07C14.2908 0.000107995 14.7719 0.193754 15.1312 0.539883C15.4905 0.886012 15.6999 1.35741 15.7148 1.85412H14.5049C14.3282 1.85402 14.1572 1.91572 14.0219 2.02837C13.8866 2.14102 13.7957 2.29742 13.7651 2.47005Z" fill="#187D44"/>
<path d="M12.5935 1.55138C12.641 1.55126 12.6875 1.5383 12.7282 1.51388C12.7688 1.48947 12.802 1.45453 12.8241 1.41282C12.916 1.23735 13.0546 1.09027 13.225 0.987608C13.3953 0.884944 13.5907 0.830632 13.79 0.830583C13.859 0.830583 13.9251 0.803394 13.9739 0.754997C14.0227 0.706601 14.05 0.640961 14.05 0.572519C14.05 0.504076 14.0227 0.438436 13.9739 0.39004C13.9251 0.341643 13.859 0.314454 13.79 0.314454C13.4956 0.314115 13.2068 0.394096 12.9551 0.545656C12.7034 0.697217 12.4985 0.914522 12.3629 1.17382C12.3466 1.20373 12.3366 1.23656 12.3333 1.27039C12.3301 1.30421 12.3337 1.33834 12.344 1.37075C12.3543 1.40316 12.371 1.4332 12.3931 1.45909C12.4153 1.48499 12.4425 1.50621 12.4731 1.52151C12.5101 1.54111 12.5515 1.55137 12.5935 1.55138Z" fill="white"/>
<path d="M14.5855 1.08698C14.6405 1.08707 14.694 1.06992 14.7385 1.03797C14.783 1.00601 14.8161 0.96091 14.8332 0.909113C14.8503 0.857317 14.8504 0.801488 14.8335 0.749629C14.8166 0.697769 14.7836 0.65254 14.7393 0.620424L14.7271 0.611524C14.6994 0.591591 14.6679 0.577293 14.6346 0.569454C14.6013 0.561615 14.5667 0.560391 14.5329 0.565846C14.4991 0.571302 14.4667 0.583332 14.4376 0.601247C14.4084 0.619162 14.3832 0.642607 14.3632 0.670237C14.3433 0.697867 14.329 0.729139 14.3213 0.762253C14.3135 0.795367 14.3125 0.829669 14.3181 0.863195C14.3238 0.896721 14.3361 0.928808 14.3543 0.957612C14.3724 0.986415 14.3962 1.01137 14.4241 1.03104L14.4325 1.03739C14.477 1.0695 14.5305 1.08685 14.5855 1.08698Z" fill="white"/>
<path d="M13.3103 3.47055C13.342 3.48224 13.376 3.48686 13.4097 3.48407C13.4434 3.48128 13.4761 3.47115 13.5055 3.4544C13.5348 3.43766 13.5601 3.4147 13.5795 3.38718C13.5989 3.35965 13.612 3.32822 13.6177 3.29512L13.7651 2.4688C13.7958 2.29629 13.8868 2.14005 14.0221 2.02752C14.1574 1.91499 14.3283 1.85338 14.5049 1.85352H15.7148C15.7148 1.87258 15.7148 1.89166 15.7148 1.91072V2.08806H14.5689C14.433 2.0877 14.3013 2.13502 14.1971 2.22167C14.0929 2.30832 14.0229 2.42872 13.9995 2.56161L13.8541 3.38093C13.8418 3.44924 13.8141 3.51391 13.7731 3.57007C13.732 3.62622 13.6786 3.6724 13.617 3.70514C13.5553 3.73787 13.487 3.7563 13.4171 3.75905C13.3472 3.76179 13.2776 3.74878 13.2136 3.72099L12.0023 3.19405C11.9612 3.17607 11.9262 3.1466 11.9016 3.10925C11.8771 3.07189 11.864 3.02826 11.864 2.98366V2.93853L13.3103 3.47055Z" fill="#0E4B29"/>
<path d="M13.4287 10.1527L13.0745 8.61515L13.5831 5.84763C13.6126 5.68709 13.5906 5.52141 13.5201 5.37395C13.4497 5.2265 13.3344 5.10471 13.1904 5.02576L12.0208 4.38569C11.9461 4.3448 11.8605 4.32752 11.7756 4.33615C11.6907 4.34478 11.6104 4.37892 11.5455 4.43399C10.5825 5.25348 9.97994 6.41363 9.86606 7.66743L9.64572 10.0974C9.64012 10.1602 9.64775 10.2235 9.66813 10.2832C9.6885 10.3429 9.72117 10.3978 9.76407 10.4443C9.80696 10.4908 9.85913 10.528 9.91727 10.5534C9.97541 10.5788 10.0382 10.5919 10.1018 10.5919H13.0745C13.1289 10.5919 13.1826 10.5798 13.2317 10.5564C13.2807 10.5329 13.3239 10.4989 13.3579 10.4567C13.3919 10.4146 13.4159 10.3654 13.4282 10.3127C13.4404 10.2601 13.4406 10.2054 13.4287 10.1527Z" fill="#F58634"/>
<path d="M11.6653 5.53711L11.6557 5.57461C11.595 5.80678 11.5856 6.04922 11.6282 6.28532C11.6707 6.52143 11.7642 6.7456 11.9023 6.94248L13.0745 8.61545L13.3127 7.31941L11.6653 5.53711Z" fill="#5297F4"/>
<path d="M13.3 4.7168L13.6216 4.88142L13.3 5.2253L13.1905 5.02889L13.3 4.7168Z" fill="#F58634"/>
<path d="M13.6216 4.88086L13.6946 5.46881L13.3634 5.15736L13.6216 4.88086Z" fill="#5297F4"/>
<path d="M11.8319 4.33522L12.1727 4.03711L13.3884 4.69689L13.2225 5.39417L11.8319 4.33522Z" fill="#6BC5FF"/>
<path d="M18.6964 9.23047H19.6028C19.6838 9.23047 19.7615 9.26242 19.8188 9.31928C19.8761 9.37614 19.9083 9.45325 19.9083 9.53366V10.0962C19.9083 10.1766 19.8761 10.2537 19.8188 10.3106C19.7615 10.3674 19.6838 10.3994 19.6028 10.3994H18.8687V10.1756C18.6476 10.1756 18.4354 10.0885 18.2788 9.93348L18.1686 9.82415L18.6964 9.23047Z" fill="#F2C9AD"/>
<path d="M18.6965 9.23091L18.1694 9.82459L15.9051 9.3021L16.2183 8.4707L18.6965 9.23091Z" fill="#F2C9AD"/>
<path d="M16.2182 8.4707L16.3284 8.50503L16.3643 9.40825L15.905 9.3021L16.2182 8.4707Z" fill="#FEEDE1"/>
<path d="M11.8786 5.25604C12.0223 5.14399 12.2041 5.09125 12.386 5.10877C12.5679 5.12629 12.7361 5.21273 12.8554 5.35011L15.2094 8.05407L15.634 8.19581L15.2395 9.24269L15.0166 9.19502C14.6642 9.11902 14.3429 8.9399 14.0942 8.68079L11.8075 6.29656C11.739 6.22573 11.6861 6.14148 11.6523 6.0492C11.6185 5.95692 11.6045 5.85865 11.6112 5.7607C11.6179 5.66274 11.6451 5.56725 11.6912 5.48034C11.7372 5.39344 11.8011 5.31704 11.8786 5.25604Z" fill="#F58634"/>
<path d="M15.2254 9.2756L15.2376 9.24255L15.6322 8.19567L15.6713 8.09206C15.682 8.06364 15.7037 8.04061 15.7316 8.02798C15.7594 8.01536 15.7911 8.01417 15.8199 8.02468L16.208 8.16897C16.2367 8.17968 16.2599 8.20119 16.2726 8.22882C16.2853 8.25644 16.2865 8.28794 16.2759 8.31644L16.2445 8.40034L15.8756 9.37984L15.8301 9.49997C15.8248 9.51412 15.8167 9.52709 15.8063 9.53813C15.7959 9.54917 15.7834 9.55808 15.7696 9.56434C15.7557 9.57059 15.7407 9.57408 15.7255 9.57459C15.7103 9.57511 15.6951 9.57265 15.6809 9.56735L15.2927 9.4237C15.264 9.41287 15.2408 9.3912 15.2282 9.36344C15.2156 9.33568 15.2146 9.30409 15.2254 9.2756Z" fill="#5297F4"/>
<path d="M12.7113 5.46261C12.6052 5.34064 12.4606 5.25805 12.301 5.22837C12.1415 5.19869 11.9765 5.22368 11.8331 5.29926C11.8491 5.28464 11.8658 5.26938 11.8831 5.25604C12.0268 5.14399 12.2085 5.09125 12.3905 5.10877C12.5724 5.12629 12.7405 5.21273 12.8599 5.35011L15.2094 8.05407L15.634 8.19581L15.57 8.36362L15.0934 8.20407L12.7113 5.46261Z" fill="#6BC5FF"/>
<path d="M18.571 10.1744C18.5546 10.1446 18.5325 10.1183 18.5059 10.0971C18.4793 10.0758 18.4487 10.0599 18.4159 10.0504C18.3831 10.0409 18.3488 10.0379 18.3148 10.0416C18.2808 10.0453 18.248 10.0557 18.218 10.072C18.2232 10.0689 18.2276 10.0644 18.2334 10.0612L18.815 9.74341C18.845 9.72627 18.8782 9.71524 18.9125 9.71098C18.9469 9.70672 18.9817 9.7093 19.015 9.71858C19.0484 9.72787 19.0795 9.74366 19.1066 9.76504C19.1337 9.78641 19.1562 9.81295 19.1729 9.84307C19.1895 9.8732 19.1999 9.90632 19.2035 9.94049C19.207 9.97466 19.2037 10.0092 19.1936 10.0421C19.1835 10.0749 19.167 10.1055 19.1449 10.1319C19.1227 10.1583 19.0955 10.1801 19.0648 10.196L18.4839 10.5138C18.5395 10.4791 18.5795 10.4245 18.5957 10.3613C18.6119 10.2982 18.6031 10.2312 18.571 10.1744Z" fill="#422C4F"/>
<path d="M18.3576 10.5473C18.3015 10.5474 18.2469 10.5294 18.2019 10.496C18.157 10.4627 18.1242 10.4158 18.1083 10.3624C18.0925 10.3089 18.0946 10.2519 18.1143 10.1997C18.1339 10.1476 18.1701 10.1031 18.2173 10.0731C18.2768 10.0382 18.3477 10.0282 18.4147 10.0452C18.4816 10.0623 18.5389 10.105 18.5741 10.164C18.6092 10.223 18.6193 10.2935 18.6022 10.3598C18.585 10.4262 18.5419 10.4831 18.4825 10.518C18.444 10.538 18.401 10.548 18.3576 10.5473Z" fill="#495375"/>
</g>
<defs>
<clipPath id="clip0_1134_5078">
<rect width="26.6667" height="24" fill="white" transform="matrix(-1 0 0 1 26.6666 0)"/>
</clipPath>
</defs>
</svg>
