<svg width="20" height="27" viewBox="0 0 20 27" fill="none" xmlns="http://www.w3.org/2000/svg">
<path fill-rule="evenodd" clip-rule="evenodd" d="M13.6394 14.7141C14.0449 15.659 13.6816 17.0146 12.4273 18.2006C11.3063 19.26 9.81201 20.2179 9.19319 21.6622C8.32772 23.6827 9.30651 25.6979 11.3852 26.4449C13.9449 27.3638 17.8167 26.6308 19.4666 24.3617C20.4609 22.9952 19.4932 21.8784 17.7345 22.7163C16.2736 23.4125 15.0826 23.8795 14.2671 23.9292C12.9161 24.0114 12.4129 22.7865 13.9916 21.7649C14.2193 21.6179 14.4426 21.4665 14.6593 21.3098C17.0335 19.6006 18.7522 17.3584 18.6611 14.9606C18.5222 11.2709 14.5993 8.52061 10.8819 8.94331C7.46781 9.3325 3.91817 11.9076 2.13391 16.1228C3.23713 14.3768 8.08108 12.8255 11.1719 13.2547C12.3518 13.419 13.2761 13.8719 13.6383 14.7141H13.6394Z" fill="#187D44"/>
<path fill-rule="evenodd" clip-rule="evenodd" d="M5.86137 23.1683C5.93803 19.4786 7.299 16.4894 8.88772 14.791L8.8755 14.8051C3.56383 15.4926 0.685233 18.111 0.99409 23.2375C1.28517 28.0883 5.75582 28.3294 5.86137 23.1683Z" fill="#187D44"/>
<path d="M3.52822 26.9586C3.44712 26.9586 3.36491 26.9521 3.2838 26.9402C3.36491 26.9521 3.44712 26.9586 3.52822 26.9586C4.64144 26.9586 5.72689 25.817 5.85243 23.4462C5.72689 25.8159 4.64255 26.9586 3.52822 26.9586ZM3.28269 26.9402C3.28158 26.9402 3.28158 26.9402 3.28047 26.9402C3.28047 26.9402 3.28158 26.9402 3.28269 26.9402ZM3.27936 26.9391C3.27825 26.9391 3.27825 26.9391 3.27714 26.9391C3.27825 26.9391 3.27825 26.9391 3.27936 26.9391ZM3.27491 26.938C3.27491 26.938 3.27491 26.938 3.2738 26.938C3.2738 26.938 3.2738 26.938 3.27491 26.938ZM5.86243 23.1845C5.86243 23.1791 5.86243 23.1737 5.86243 23.1683C5.86243 23.164 5.86243 23.1597 5.86243 23.1564C5.86243 23.1597 5.86243 23.164 5.86243 23.1683C5.86243 23.1737 5.86243 23.1791 5.86243 23.1845ZM5.86354 23.1478C5.86354 23.1467 5.86354 23.1456 5.86354 23.1445C5.86354 23.1456 5.86354 23.1467 5.86354 23.1478Z" fill="#9FA3AA"/>
<path d="M3.52831 26.9583C3.44721 26.9583 3.365 26.9518 3.28389 26.9399H3.28278C3.28167 26.9399 3.28167 26.9399 3.28056 26.9399C3.27945 26.9399 3.27945 26.9399 3.27834 26.9388C3.27723 26.9388 3.27723 26.9388 3.27612 26.9388C3.27612 26.9388 3.27501 26.9378 3.27278 26.9378C3.27278 26.9378 3.27278 26.9378 3.27167 26.9378C2.64618 26.8405 2.03291 26.3832 1.59851 25.5832C1.91515 25.6761 2.20289 25.7226 2.4662 25.7226C4.33934 25.7226 5.01705 23.4026 6.44468 19.3032C6.10583 20.4621 5.8914 21.754 5.86141 23.1443C5.86141 23.1453 5.86141 23.1464 5.86141 23.1475C5.86141 23.1497 5.86141 23.1518 5.86141 23.1551C5.86141 23.1594 5.86141 23.1637 5.86141 23.168C5.86141 23.1724 5.86141 23.1778 5.86141 23.1832C5.85918 23.2718 5.85585 23.3594 5.85141 23.4448C5.72698 25.8145 4.64153 26.9572 3.5272 26.9572L3.52831 26.9583ZM10.2676 25.847C10.592 26.0913 10.9676 26.2934 11.3864 26.4448C12.7374 26.9302 14.4539 26.9551 16.0159 26.5367C16.0015 26.5388 15.9881 26.541 15.9748 26.5432C17.4702 26.3183 20.9787 24.1291 19.5678 22.6513C17.9191 25.3637 12.954 26.7897 10.2665 25.847H10.2676ZM15.9748 26.5421C15.9515 26.5453 15.9282 26.5486 15.9037 26.5518C15.927 26.5486 15.9504 26.5453 15.9748 26.5421ZM15.9037 26.5518C15.8815 26.554 15.8582 26.5561 15.8371 26.5572C15.8582 26.5561 15.8815 26.554 15.9037 26.5518ZM13.5651 16.6124C13.6773 16.3378 13.7495 16.0686 13.7795 15.8102V15.8091C13.7795 15.8081 13.7795 15.807 13.7795 15.807C13.7795 15.8059 13.7795 15.8059 13.7795 15.8048C13.7795 15.8037 13.7795 15.8037 13.7795 15.8037C13.7795 15.8027 13.7795 15.8016 13.7795 15.8016C13.7795 15.8005 13.7795 15.8005 13.7795 15.7994C13.7795 15.7994 13.7795 15.7983 13.7795 15.7972V15.7962C13.7795 15.7951 13.7795 15.7951 13.7806 15.7929C13.7806 15.7929 13.7806 15.7929 13.7806 15.7918C13.8239 15.4005 13.775 15.0329 13.6373 14.7118C13.2773 13.8751 12.3619 13.421 11.192 13.2556C11.1842 13.2545 11.1775 13.2535 11.1709 13.2524C10.8176 13.2037 10.442 13.181 10.051 13.181C8.77333 13.181 7.33792 13.4286 6.0325 13.8318C6.03139 13.8329 6.02917 13.8329 6.02806 13.834C6.02583 13.8351 6.02472 13.8351 6.0225 13.8351C4.49377 14.3086 3.1428 14.994 2.43287 15.7421C4.47377 13.3324 8.12117 12.0762 10.882 12.0762C13.8639 12.0762 15.8093 13.5454 13.5628 16.6135L13.5651 16.6124ZM13.0273 24.2772C11.3408 24.2772 11.9997 22.3853 13.8706 21.847C13.1595 22.3464 12.9296 22.8848 13.0396 23.288C13.0396 23.288 13.0396 23.288 13.0396 23.2891C13.0396 23.2902 13.0396 23.2902 13.0407 23.2913C13.0407 23.2924 13.0407 23.2924 13.0407 23.2935V23.2945V23.2956C13.0407 23.2956 13.0407 23.2956 13.0407 23.2967C13.0407 23.2978 13.0407 23.2978 13.0407 23.2978C13.0407 23.2989 13.0418 23.2989 13.0418 23.2999C13.0418 23.301 13.0418 23.301 13.0418 23.3021C13.0418 23.3021 13.0418 23.3021 13.0418 23.3032L13.0429 23.3043C13.0918 23.4697 13.1973 23.6113 13.3506 23.7183C13.3506 23.7183 13.3506 23.7183 13.3517 23.7183C13.3529 23.7194 13.3529 23.7194 13.354 23.7194C13.354 23.7194 13.354 23.7194 13.354 23.7205L13.3551 23.7216C13.3562 23.7216 13.3562 23.7226 13.3562 23.7226C13.3562 23.7226 13.3562 23.7226 13.3573 23.7226C13.3584 23.7226 13.3584 23.7237 13.3584 23.7237C13.3584 23.7237 13.3584 23.7237 13.3595 23.7237C13.3606 23.7248 13.3617 23.7248 13.3617 23.7259C13.554 23.8567 13.8206 23.9345 14.1406 23.9345C14.1828 23.9345 14.225 23.9324 14.2683 23.9302C14.4339 23.9194 14.615 23.8924 14.8105 23.8502C14.0472 24.154 13.4606 24.2783 13.0273 24.2783V24.2772Z" fill="#00C856"/>
<path d="M14.1405 23.9341C13.8205 23.9341 13.5539 23.8574 13.3617 23.7255C13.5539 23.8563 13.8194 23.9331 14.1405 23.9331C14.1827 23.9331 14.2249 23.9309 14.2683 23.9287C14.4338 23.919 14.6149 23.8909 14.8104 23.8487C14.6149 23.8909 14.4349 23.919 14.2694 23.9287C14.2261 23.9309 14.1827 23.9331 14.1416 23.9331L14.1405 23.9341ZM13.3617 23.7255C13.3606 23.7255 13.3606 23.7244 13.3595 23.7233C13.3606 23.7244 13.3617 23.7244 13.3617 23.7255ZM13.3584 23.7233C13.3584 23.7233 13.3584 23.7233 13.3573 23.7233C13.3584 23.7233 13.3584 23.7233 13.3584 23.7233ZM13.3561 23.7222C13.355 23.7222 13.355 23.7212 13.355 23.7212C13.3561 23.7212 13.3561 23.7222 13.3561 23.7222ZM13.3539 23.7201C13.3539 23.7201 13.3528 23.7201 13.3528 23.719C13.3528 23.719 13.3539 23.719 13.3539 23.7201ZM13.0417 23.3017C13.0417 23.3017 13.0417 23.3017 13.0417 23.3006C13.0417 23.3006 13.0417 23.3006 13.0417 23.3017ZM13.0406 23.2995V23.2985V23.2995ZM13.0395 23.2941C13.0395 23.2931 13.0395 23.2931 13.0395 23.2931V23.2941ZM13.0384 23.292C13.0384 23.292 13.0384 23.292 13.0373 23.2909C13.0373 23.292 13.0384 23.292 13.0384 23.292ZM13.0373 23.2909C13.0373 23.2898 13.0362 23.2887 13.0362 23.2887C13.0362 23.2898 13.0362 23.2898 13.0373 23.2909ZM13.0362 23.2887C12.9262 22.8844 13.1573 22.346 13.8683 21.8477C13.1584 22.346 12.9273 22.8844 13.0362 23.2887Z" fill="#9FA3AA"/>
<path d="M13.7794 15.8108C13.7794 15.8108 13.7794 15.8108 13.7794 15.8097V15.8108ZM13.7794 15.8076C13.7794 15.8076 13.7794 15.8076 13.7794 15.8065C13.7794 15.8076 13.7794 15.8076 13.7794 15.8076ZM13.7805 15.8043V15.8033C13.7805 15.8043 13.7805 15.8043 13.7805 15.8043ZM13.7816 15.8011C13.7816 15.8 13.7816 15.8 13.7816 15.7989C13.7816 15.8 13.7816 15.8 13.7816 15.8011ZM13.7816 15.7979C13.7816 15.7968 13.7816 15.7957 13.7828 15.7946C13.7828 15.7957 13.7828 15.7957 13.7816 15.7979ZM13.7828 15.7946C13.8261 15.4022 13.7772 15.0346 13.6394 14.7146C13.7761 15.0346 13.8261 15.4022 13.7828 15.7946ZM6.02466 13.8368C6.02688 13.8357 6.0291 13.8357 6.03021 13.8357C6.0291 13.8357 6.02688 13.8357 6.02466 13.8368ZM6.03577 13.8335C7.34119 13.4303 8.7766 13.1816 10.0542 13.1816C10.4453 13.1816 10.8208 13.2054 11.173 13.2541C11.1797 13.2552 11.1875 13.2562 11.1941 13.2573C11.1875 13.2562 11.1797 13.2552 11.173 13.2541C10.8208 13.2054 10.4442 13.1816 10.0542 13.1816C8.77549 13.1816 7.34119 13.4303 6.03577 13.8335Z" fill="#9FA3AA"/>
<path d="M10.632 0.428577C10.6398 0.49128 10.6342 0.553982 10.6153 0.615604C10.5964 0.676144 10.5664 0.731279 10.5253 0.781009C10.4842 0.830739 10.4342 0.870739 10.3765 0.90209C10.3187 0.93236 10.2576 0.950738 10.192 0.958306C10.1265 0.964792 10.062 0.959387 9.99871 0.94209C9.93539 0.923712 9.87762 0.895603 9.82651 0.855604C9.7754 0.815604 9.7343 0.766955 9.70208 0.71182C9.67097 0.655604 9.65097 0.596145 9.64431 0.532361C9.63764 0.469658 9.6432 0.406956 9.66208 0.346415C9.67986 0.284793 9.70986 0.229659 9.75096 0.179929C9.79318 0.1302 9.84206 0.0901995 9.89984 0.0599293C9.95761 0.028578 10.0198 0.0101997 10.0854 0.00263207C10.1509 -0.00385454 10.2154 0.00155107 10.2787 0.0199293C10.342 0.0372266 10.3987 0.0664158 10.4498 0.106416C10.502 0.146416 10.5431 0.193983 10.5742 0.250199C10.6064 0.305334 10.6253 0.364794 10.632 0.428577Z" fill="#F58634"/>
<path d="M16.1503 2.72938C16.157 2.79208 16.1514 2.85479 16.1325 2.91533C16.1148 2.97695 16.0848 3.03208 16.0425 3.08181C16.0014 3.13154 15.9525 3.17154 15.8948 3.20289C15.837 3.23316 15.7748 3.25154 15.7092 3.25911C15.6437 3.2656 15.5793 3.26019 15.5159 3.24289C15.4526 3.22451 15.3959 3.19532 15.3448 3.15533C15.2926 3.11641 15.2515 3.06776 15.2204 3.01262C15.1882 2.95641 15.1693 2.89695 15.1615 2.83316C15.1549 2.77046 15.1604 2.70776 15.1793 2.64722C15.1982 2.5856 15.2282 2.53046 15.2693 2.48073C15.3104 2.431 15.3604 2.391 15.4182 2.35965C15.4759 2.32938 15.537 2.311 15.6026 2.30343C15.6681 2.29695 15.7326 2.30235 15.7959 2.31965C15.8592 2.33803 15.917 2.36722 15.9681 2.40722C16.0192 2.44614 16.0603 2.49479 16.0925 2.54992C16.1236 2.60614 16.1425 2.6656 16.1503 2.72938Z" fill="#F58634"/>
<path d="M5.68803 3.83485C5.69581 3.89755 5.68914 3.96025 5.67136 4.02079C5.65248 4.08242 5.62248 4.13755 5.58137 4.18728C5.54027 4.23701 5.49027 4.27701 5.4325 4.30836C5.37473 4.33863 5.31251 4.35701 5.24696 4.36458C5.18141 4.37106 5.11698 4.36566 5.05476 4.34836C4.99143 4.32998 4.93366 4.30079 4.88256 4.26188C4.83145 4.22188 4.78923 4.17323 4.75812 4.11809C4.72702 4.06188 4.70702 4.00242 4.70035 3.93863C4.69258 3.87593 4.69924 3.81323 4.71702 3.75269C4.7359 3.69107 4.7659 3.63593 4.80701 3.5862C4.84812 3.53647 4.89811 3.49647 4.95588 3.46512C5.01365 3.43485 5.07587 3.41647 5.14142 3.4089C5.20586 3.40242 5.27029 3.40782 5.33362 3.42512C5.39695 3.4435 5.45472 3.47269 5.50583 3.51269C5.55693 3.55161 5.59915 3.60025 5.63026 3.65539C5.66137 3.71161 5.68136 3.77107 5.68803 3.83485Z" fill="#F58634"/>
<path d="M13.1895 3.75623C13.1951 3.80596 13.1907 3.85569 13.1762 3.90325C13.1618 3.9519 13.1384 3.99515 13.1051 4.03406C13.0729 4.07298 13.034 4.10434 12.9885 4.1292C12.9429 4.15298 12.8951 4.16812 12.8429 4.17352C12.7918 4.17893 12.7407 4.17461 12.6918 4.16055C12.6418 4.1465 12.5963 4.12379 12.5563 4.09244C12.5163 4.06109 12.483 4.02325 12.4585 3.97893C12.4341 3.93569 12.4185 3.88812 12.413 3.83839C12.4074 3.78866 12.4118 3.74001 12.4263 3.69244C12.4407 3.6438 12.4641 3.60055 12.4974 3.56163C12.5296 3.52271 12.5685 3.49028 12.614 3.4665C12.6596 3.44271 12.7074 3.42758 12.7596 3.42217C12.8107 3.41677 12.8618 3.42109 12.9107 3.43515C12.9607 3.4492 13.0062 3.4719 13.0462 3.50326C13.0862 3.53461 13.1196 3.57244 13.144 3.61569C13.1684 3.66001 13.184 3.7065 13.1895 3.75623Z" fill="#F58634"/>
<path d="M8.57993 4.17615C8.58548 4.22588 8.58104 4.27453 8.56548 4.32318C8.55104 4.37074 8.52771 4.41507 8.49549 4.45399C8.46327 4.49291 8.42439 4.52426 8.37884 4.54804C8.33329 4.57291 8.2844 4.58696 8.2333 4.59237C8.18108 4.59777 8.13108 4.59345 8.08109 4.57939C8.03109 4.56534 7.98665 4.54264 7.94666 4.51128C7.90555 4.47993 7.87333 4.44318 7.84889 4.39885C7.82334 4.35453 7.80889 4.30804 7.80334 4.25831C7.79779 4.20858 7.80223 4.15993 7.81667 4.11128C7.83111 4.06372 7.85445 4.01939 7.88666 3.98047C7.91999 3.94156 7.95888 3.9102 8.00443 3.88642C8.04887 3.86156 8.09775 3.8475 8.14886 3.8421C8.20108 3.83669 8.25107 3.84102 8.30107 3.85507C8.35106 3.86912 8.3955 3.89183 8.43661 3.92318C8.4766 3.95453 8.50882 3.99129 8.53438 4.03561C8.55882 4.07993 8.57437 4.12642 8.57993 4.17615Z" fill="#F58634"/>
<path d="M15.506 3.60528L15.4371 3.71772L14.0339 6.02258C13.8606 6.3069 13.5984 6.51987 13.2951 6.63879L12.8674 4.39339C12.8563 4.33177 12.7785 4.32528 12.7607 4.38474L12.1197 6.62366C11.8186 6.4723 11.5886 6.20528 11.4975 5.87663L10.3976 1.9361V1.92096L10.1932 1.20312L9.94877 6.03987C9.93211 6.38041 9.76657 6.6896 9.50548 6.89933L8.3856 4.84636C8.3556 4.79231 8.28116 4.81501 8.28339 4.87771L8.36116 7.16852C8.04119 7.11338 7.74233 6.96095 7.51236 6.72203L5.63255 4.76312L5.54034 4.66798C5.48812 4.61285 5.39591 4.66906 5.42479 4.73825L7.03907 8.62365L7.19683 9.00527L7.20239 9.01825C7.20683 9.02906 7.21239 9.03987 7.21794 9.0496C7.21905 9.05284 7.22127 9.05608 7.22238 9.05933C7.22683 9.06581 7.23127 9.07338 7.23572 9.07987C7.23794 9.08311 7.24016 9.08635 7.24238 9.0896C7.24683 9.095 7.25127 9.10149 7.25571 9.10689C7.25794 9.11014 7.26127 9.11338 7.26349 9.11662C7.26794 9.12203 7.27349 9.12744 7.27793 9.13176C7.28127 9.135 7.28349 9.13825 7.28682 9.14149C7.29238 9.14581 7.29682 9.15122 7.30238 9.15554C7.30571 9.15771 7.30904 9.16095 7.31238 9.16311C7.31793 9.16744 7.32349 9.17176 7.32904 9.17608C7.33237 9.17825 7.33571 9.18041 7.33904 9.18257C7.34571 9.18798 7.35237 9.19122 7.36015 9.19554C7.36237 9.19662 7.3657 9.19879 7.36793 9.19987C7.37792 9.20527 7.38792 9.21068 7.39792 9.215C7.40014 9.21608 7.40348 9.21716 7.40681 9.21825C7.41348 9.22041 7.42125 9.22365 7.42903 9.22581C7.43347 9.22798 7.43792 9.22906 7.44236 9.23014C7.44792 9.2323 7.45458 9.23338 7.46014 9.23554C7.46569 9.23662 7.47125 9.23771 7.47569 9.23879C7.48125 9.23987 7.48791 9.24095 7.49347 9.24203C7.49902 9.24203 7.50458 9.24311 7.51013 9.24311C7.51569 9.24419 7.52124 9.24419 7.5268 9.24527C7.53235 9.24527 7.53791 9.24527 7.54346 9.24527C7.54902 9.24527 7.55457 9.24527 7.56013 9.24527C7.56568 9.24527 7.57235 9.24527 7.5779 9.24527C7.58346 9.24419 7.58679 9.23662 7.59124 9.23662C7.5979 9.23554 7.60457 9.22798 7.61123 9.22689H7.61234C7.61568 9.22689 7.62012 9.2323 7.62457 9.23122C7.63123 9.23014 7.63901 9.2323 7.64567 9.23014C7.65678 9.22798 7.66901 9.22581 7.68012 9.22149C8.33671 8.98798 9.81545 8.49717 10.992 8.37284C12.1697 8.24852 13.7217 8.42041 14.4139 8.5123C14.4261 8.51338 14.4383 8.51446 14.4505 8.51554C14.4572 8.51554 14.4639 8.50798 14.4705 8.50798C14.475 8.50798 14.4783 8.50149 14.4816 8.50149C14.4828 8.50149 14.4828 8.50149 14.4828 8.50149C14.4894 8.50041 14.4972 8.5069 14.5039 8.5069C14.5094 8.50581 14.5139 8.50906 14.5183 8.50798C14.525 8.50798 14.5305 8.50798 14.5372 8.5069C14.5427 8.50581 14.5472 8.50581 14.5527 8.50473C14.5583 8.50365 14.5639 8.50257 14.5694 8.50041C14.575 8.49933 14.5805 8.49825 14.5861 8.49608C14.5905 8.49392 14.5961 8.49284 14.6016 8.49068C14.6072 8.48852 14.6127 8.48635 14.6172 8.48419C14.6227 8.48203 14.6272 8.47987 14.6316 8.47771C14.6372 8.47554 14.6427 8.4723 14.6483 8.46906C14.6527 8.4669 14.6572 8.46473 14.6605 8.46257C14.6683 8.45825 14.6738 8.45392 14.6805 8.4496C14.6838 8.44744 14.6861 8.44636 14.6883 8.44419C14.6972 8.43771 14.7061 8.43122 14.7149 8.42473C14.7172 8.42257 14.7194 8.42041 14.7216 8.41825C14.7272 8.41284 14.7327 8.40744 14.7383 8.40203C14.7416 8.39879 14.7438 8.39554 14.7472 8.3923C14.7516 8.38798 14.7561 8.38257 14.7605 8.37717C14.7638 8.37392 14.7661 8.3696 14.7683 8.36636C14.7727 8.36095 14.7772 8.35554 14.7805 8.35014C14.7827 8.34582 14.7849 8.34257 14.7872 8.33933C14.7916 8.33284 14.7949 8.32744 14.7983 8.32095C14.8005 8.31771 14.8016 8.31338 14.8038 8.31014C14.8072 8.30365 14.8105 8.29609 14.8127 8.2896C14.8149 8.28636 14.8161 8.28203 14.8172 8.27879C14.8205 8.27122 14.8227 8.26365 14.8249 8.25609C14.826 8.25284 14.8272 8.2496 14.8283 8.24636C14.8316 8.23554 14.8338 8.22365 14.836 8.21284L14.8383 8.19771L14.9094 7.7923L15.6171 3.72961V3.72853L15.6237 3.7188L15.6349 3.65069C15.6482 3.57609 15.546 3.54042 15.506 3.60528Z" fill="#F58634"/>
<path d="M9.9209 20.1823C9.45317 20.3564 9.0921 20.4482 8.82102 20.4947C8.57438 20.5369 8.33884 20.472 8.19108 20.3218C8.1833 20.3142 8.17553 20.3066 8.16886 20.2991L8.09554 20.1855C8.05665 20.0991 8.04665 20.0028 8.06887 19.9045C8.10331 19.751 8.14553 19.6007 8.19553 19.4526L8.59326 19.9801C8.62437 20.0212 8.67659 20.0364 8.72325 20.0245C8.73658 20.0201 8.74991 20.0137 8.76102 20.005C8.81546 19.9672 8.82657 19.8947 8.78769 19.8428L8.29218 19.1855C8.42106 18.858 8.58437 18.5412 8.77547 18.2364L9.22098 18.8277C9.25208 18.8677 9.30319 18.8839 9.34985 18.871C9.3643 18.8677 9.37652 18.8612 9.38874 18.8526C9.44206 18.8147 9.45429 18.7412 9.4154 18.6893L8.91323 18.0245C9.16654 17.6504 9.45984 17.2958 9.78092 16.9607L10.2409 17.5693C10.2709 17.6093 10.3231 17.6255 10.3697 17.6126C10.3831 17.6093 10.3964 17.6028 10.4086 17.5942C10.462 17.5564 10.4742 17.4828 10.4342 17.431L9.94979 16.7888C10.2553 16.4839 10.5831 16.1964 10.9219 15.9261L11.4119 16.5747C11.4419 16.6147 11.4941 16.631 11.5407 16.618C11.5541 16.6147 11.5674 16.6083 11.5796 16.5996C11.633 16.5618 11.6441 16.4883 11.6052 16.4374L11.1086 15.7791C11.4463 15.5185 11.7929 15.2753 12.1396 15.0493L12.5995 15.658C12.6295 15.6991 12.6817 15.7142 12.7284 15.7023C12.7417 15.698 12.7551 15.6915 12.7662 15.6839C12.8206 15.645 12.8317 15.5726 12.7928 15.5207L12.3407 14.9207C12.7273 14.6764 13.1117 14.4526 13.4794 14.2526L13.9449 14.8688C13.9749 14.9099 14.0272 14.925 14.0738 14.912C14.0883 14.9088 14.1005 14.9034 14.1127 14.8947C14.166 14.8558 14.1782 14.7834 14.1394 14.7315L13.6916 14.138C14.1105 13.9153 14.5038 13.7239 14.8526 13.5629L15.3237 14.1877C15.3537 14.2277 15.4059 14.2439 15.4526 14.231C15.4659 14.2266 15.4792 14.2212 15.4914 14.2126C15.5448 14.1747 15.5559 14.1012 15.517 14.0493L15.0737 13.4623C15.6225 13.2158 16.0303 13.0591 16.1992 12.9964L17.1357 14.2818C16.1936 14.6526 11.153 16.7726 9.9209 20.1823ZM10.6586 20.1347L11.1686 20.8115C11.1997 20.8515 11.2508 20.8677 11.2974 20.8547C11.3108 20.8515 11.3241 20.845 11.3363 20.8364C11.3896 20.7985 11.4019 20.725 11.363 20.6731L10.8808 20.0342C11.2097 19.8818 11.5574 19.7077 11.9207 19.511L12.3895 20.1326C12.4195 20.1726 12.4718 20.1888 12.5184 20.1758C12.5317 20.1726 12.5451 20.1661 12.5573 20.1574C12.6106 20.1196 12.6229 20.0461 12.5829 19.9942L12.1318 19.3953C12.4273 19.2331 12.7328 19.0558 13.0473 18.8655L13.5272 19.5012C13.5572 19.5412 13.6094 19.5574 13.6561 19.5445C13.6694 19.5412 13.6827 19.5347 13.695 19.5261C13.7483 19.4882 13.7594 19.4158 13.7205 19.3639L13.2517 18.7412C13.5416 18.5628 13.8249 18.4061 14.106 18.2645L14.5826 18.8969C14.6126 18.9369 14.6649 18.9531 14.7115 18.9401C14.7249 18.9369 14.7382 18.9304 14.7504 18.9218C14.8037 18.8839 14.816 18.8115 14.776 18.7585L14.3238 18.1585C14.3993 18.1228 14.476 18.0872 14.5515 18.0537C14.8582 17.9185 15.1426 17.8072 15.4003 17.7196L15.8803 18.3542C15.9103 18.3942 15.9625 18.4104 16.0092 18.3974C16.0225 18.3942 16.0358 18.3877 16.0481 18.3791C16.1014 18.3412 16.1125 18.2688 16.0736 18.2158L15.6414 17.6428C16.1814 17.4818 16.5869 17.4428 16.8246 17.5347C16.8991 17.5639 16.9557 17.6061 16.9957 17.6623C16.9968 17.6655 16.9991 17.6677 17.0002 17.6699L17.0013 17.671C17.0135 17.6893 17.0235 17.7088 17.0324 17.7293C17.0813 17.8493 17.0591 17.9974 16.9702 18.1369C16.8591 18.312 16.6658 18.5877 16.3647 18.9369C15.517 19.1607 14.1238 19.9585 12.7739 20.7326C11.6318 21.3866 10.5542 22.005 9.90202 22.2234C9.65871 22.3045 9.41207 22.2385 9.31208 22.0645L8.43772 20.7131C8.57104 20.7445 8.71547 20.7499 8.86212 20.725C9.01655 20.698 9.18209 20.6601 9.35652 20.6126C9.35985 20.618 9.36318 20.6234 9.36652 20.6288L9.89757 21.3337C9.92868 21.3737 9.9809 21.3899 10.0276 21.3769C10.0409 21.3737 10.0542 21.3672 10.0664 21.3585C10.1198 21.3207 10.1309 21.2472 10.092 21.1953L9.5976 20.5412C9.92313 20.4385 10.2775 20.3023 10.6586 20.1347ZM17.2735 18.0407L18.3534 19.512C18.5 19.712 18.47 19.9726 18.2756 20.178C17.2679 21.2439 14.4827 23.8655 10.3198 25.2936L9.25208 23.7834C9.73204 23.5942 10.1853 23.4018 10.6131 23.2072L11.1297 23.8936C11.1597 23.9336 11.2119 23.9488 11.2585 23.9369C11.2719 23.9326 11.2852 23.9272 11.2974 23.9185C11.3508 23.8807 11.363 23.8072 11.323 23.7553L10.833 23.1055C11.2663 22.9034 11.6718 22.7001 12.0518 22.4958L12.5473 23.1531C12.5773 23.1931 12.6295 23.2082 12.6762 23.1963C12.6895 23.192 12.7028 23.1855 12.7151 23.178C12.7684 23.1391 12.7795 23.0666 12.7406 23.0147L12.2629 22.3812C12.634 22.178 12.9795 21.9736 13.3006 21.7726L13.7794 22.4061C13.8094 22.4472 13.8616 22.4623 13.9083 22.4493C13.9216 22.4461 13.9349 22.4396 13.9472 22.4309C14.0005 22.3931 14.0127 22.3207 13.9727 22.2688L13.5028 21.6439C13.8638 21.4115 14.1949 21.1812 14.4949 20.9564L15.0159 21.6472C15.0459 21.6872 15.0982 21.7034 15.1448 21.6904C15.1581 21.6861 15.1715 21.6807 15.1837 21.672C15.237 21.6342 15.2492 21.5607 15.2093 21.5088L14.6849 20.8137C15.0293 20.5488 15.3326 20.2937 15.5981 20.0526L16.1014 20.7174C16.1314 20.7585 16.1836 20.7737 16.2303 20.7607C16.2436 20.7574 16.2569 20.752 16.268 20.7434C16.3225 20.7045 16.3336 20.632 16.2947 20.5801L15.7736 19.8893C16.0614 19.6191 16.3003 19.3682 16.498 19.1445C16.5058 19.1423 16.5136 19.1401 16.5213 19.1391C16.5447 19.1337 16.5647 19.1228 16.5802 19.1077L17.0691 19.7564C17.1002 19.7964 17.1524 19.8126 17.199 19.7996C17.2124 19.7964 17.2257 19.7899 17.2379 19.7812C17.2913 19.7434 17.3024 19.6699 17.2635 19.618L16.7324 18.9142C16.7258 18.9055 16.7191 18.8991 16.7113 18.8926C16.9313 18.6223 17.0813 18.4061 17.1746 18.2591C17.2202 18.1877 17.2524 18.1142 17.2735 18.0407ZM17.4201 14.2688L16.3414 12.7877C16.3103 12.7445 16.2536 12.7272 16.2025 12.7456C15.9025 12.8504 8.84879 15.3672 7.83445 19.8547C7.80557 19.9845 7.81334 20.1153 7.85778 20.2342C7.86 20.2504 7.86445 20.2677 7.87445 20.2828L7.88556 20.2991C7.90889 20.3466 7.93777 20.3909 7.97222 20.4331L9.10543 22.1834C9.25208 22.4385 9.59316 22.5499 9.92868 22.4591C9.94646 22.4547 9.96312 22.4493 9.97979 22.4428C10.6553 22.218 11.7429 21.5942 12.895 20.9337C14.0438 20.2753 15.2237 19.5985 16.0481 19.285C14.9482 20.4418 12.8317 22.1445 9.02433 23.6212C8.98989 23.6342 8.96434 23.6623 8.95323 23.6958C8.94323 23.7304 8.94878 23.7672 8.96989 23.7963L10.1742 25.499C10.2031 25.5401 10.2564 25.5585 10.3053 25.5455C10.3075 25.5445 10.3098 25.5434 10.312 25.5434C14.5749 24.1045 17.4246 21.4223 18.4523 20.3358C18.7222 20.0504 18.7611 19.6645 18.5489 19.3758L17.2024 17.5423C17.1357 17.4428 17.0391 17.3672 16.9135 17.3185C16.4625 17.1434 15.6348 17.3196 14.4527 17.8418C14.0049 18.0396 13.5628 18.2731 13.1006 18.5574C12.6695 18.8223 12.2729 19.0526 11.9074 19.2515C11.8996 19.2558 11.8918 19.2601 11.884 19.2645C11.5585 19.4418 11.2585 19.5953 10.9819 19.7282C10.7064 19.8612 10.4531 19.9715 10.2231 20.0655C11.6541 16.5974 17.3068 14.4666 17.3646 14.445C17.399 14.432 17.4257 14.4039 17.4368 14.3693C17.4479 14.3347 17.4412 14.298 17.4201 14.2688Z" fill="#008037"/>
<path d="M16.9702 18.1373C16.8591 18.3124 16.6658 18.5881 16.3647 18.9373C15.517 19.1611 14.1238 19.9589 12.774 20.733C11.6319 21.387 10.5542 22.0054 9.90204 22.2238C9.65873 22.3048 9.41209 22.2389 9.3121 22.0648L8.43774 20.7135C8.57106 20.7448 8.71549 20.7503 8.86215 20.7254C9.01657 20.6984 9.18211 20.6605 9.35654 20.613C9.35987 20.6184 9.36321 20.6238 9.36654 20.6292L9.89759 21.334C9.9287 21.374 9.98092 21.3903 10.0276 21.3773C10.0409 21.374 10.0542 21.3675 10.0665 21.3589C10.1198 21.3211 10.1309 21.2475 10.092 21.1957L9.59763 20.5416C9.92315 20.4389 10.2776 20.3027 10.6586 20.1351L11.1686 20.8119C11.1997 20.8519 11.2508 20.8681 11.2975 20.8551C11.3108 20.8519 11.3241 20.8454 11.3363 20.8367C11.3897 20.7989 11.4019 20.7254 11.363 20.6735L10.8808 20.0346C11.2097 19.8821 11.5574 19.7081 11.9207 19.5113L12.3896 20.133C12.4196 20.173 12.4718 20.1892 12.5184 20.1762C12.5318 20.173 12.5451 20.1665 12.5573 20.1578C12.6106 20.12 12.6229 20.0465 12.5829 19.9946L12.1318 19.3957C12.4273 19.2335 12.7329 19.0562 13.0473 18.8659L13.5272 19.5016C13.5572 19.5416 13.6094 19.5578 13.6561 19.5448C13.6694 19.5416 13.6828 19.5351 13.695 19.5265C13.7483 19.4886 13.7594 19.4162 13.7205 19.3643L13.2517 18.7416C13.5417 18.5632 13.825 18.4065 14.1061 18.2649L14.5827 18.8973C14.6127 18.9373 14.6649 18.9535 14.7115 18.9405C14.7249 18.9373 14.7382 18.9308 14.7504 18.9221C14.8038 18.8843 14.816 18.8119 14.776 18.7589L14.3238 18.1589C14.3994 18.1232 14.476 18.0876 14.5516 18.054C14.8582 17.9189 15.1426 17.8076 15.4004 17.72L15.8803 18.3546C15.9103 18.3946 15.9625 18.4108 16.0092 18.3978C16.0225 18.3946 16.0359 18.3881 16.0481 18.3794C16.1014 18.3416 16.1125 18.2692 16.0736 18.2162L15.6414 17.6432C16.1814 17.4822 16.5869 17.4432 16.8247 17.5351C16.8991 17.5643 16.9558 17.6065 16.9958 17.6627C16.9969 17.6659 16.9991 17.6681 17.0002 17.6703L17.0013 17.6713C17.0135 17.6897 17.0235 17.7092 17.0324 17.7297C17.0813 17.8497 17.0591 17.9978 16.9702 18.1373Z" fill="#187D44"/>
<path d="M16.1992 12.9961C16.0303 13.0588 15.6226 13.2156 15.0737 13.462L15.517 14.0491C15.5559 14.101 15.5448 14.1745 15.4915 14.2123C15.4792 14.221 15.4659 14.2264 15.4526 14.2307C15.4059 14.2437 15.3537 14.2274 15.3237 14.1874L14.8526 13.5626C14.5038 13.7237 14.1105 13.915 13.6916 14.1377L14.1394 14.7312C14.1783 14.7831 14.166 14.8556 14.1127 14.8945C14.1005 14.9031 14.0883 14.9085 14.0738 14.9118C14.0272 14.9247 13.9749 14.9096 13.9449 14.8685L13.4794 14.2523C13.1117 14.4523 12.7273 14.6761 12.3407 14.9204L12.7928 15.5204C12.8317 15.5723 12.8206 15.6447 12.7662 15.6837C12.7551 15.6912 12.7417 15.6977 12.7284 15.702C12.6817 15.7139 12.6295 15.6988 12.5995 15.6577L12.1396 15.0491C11.7929 15.275 11.4463 15.5183 11.1086 15.7788L11.6052 16.4372C11.6441 16.488 11.633 16.5615 11.5796 16.5993C11.5674 16.608 11.5541 16.6145 11.5408 16.6177C11.4941 16.6307 11.4419 16.6145 11.4119 16.5745L10.9219 15.9258C10.5831 16.1961 10.2553 16.4837 9.9498 16.7885L10.4342 17.4307C10.4742 17.4826 10.462 17.5561 10.4086 17.5939C10.3964 17.6026 10.3831 17.6091 10.3698 17.6123C10.3231 17.6253 10.2709 17.6091 10.2409 17.5691L9.78093 16.9604C9.45985 17.2955 9.16655 17.6501 8.91324 18.0242L9.41541 18.6891C9.4543 18.7409 9.44208 18.8145 9.38875 18.8523C9.37653 18.8609 9.36431 18.8674 9.34986 18.8707C9.3032 18.8837 9.2521 18.8674 9.22099 18.8274L8.77548 18.2361C8.58439 18.5409 8.42107 18.8577 8.29219 19.1853L8.7877 19.8426C8.82658 19.8945 8.81547 19.9669 8.76104 20.0047C8.74993 20.0134 8.73659 20.0199 8.72326 20.0242C8.6766 20.0361 8.62438 20.0209 8.59328 19.9799L8.19554 19.4523C8.14554 19.6004 8.10333 19.7507 8.06888 19.9042C8.04666 20.0026 8.05666 20.0988 8.09555 20.1853L8.16887 20.2988C8.17554 20.3064 8.18332 20.3139 8.19109 20.3215C8.33886 20.4718 8.57439 20.5366 8.82103 20.4945C9.09211 20.448 9.45319 20.3561 9.92092 20.182C11.153 16.7723 16.1936 14.6523 17.1357 14.2815L16.1992 12.9961ZM18.2756 20.1777C17.2679 21.2436 14.4827 23.8653 10.3198 25.2934L9.2521 23.7831C9.73205 23.5939 10.1853 23.4015 10.6131 23.2069L11.1297 23.8934C11.1597 23.9334 11.2119 23.9485 11.2586 23.9366C11.2719 23.9323 11.2852 23.9269 11.2974 23.9182C11.3508 23.8804 11.363 23.8069 11.323 23.755L10.833 23.1053C11.2663 22.9031 11.6718 22.6999 12.0518 22.4955L12.5473 23.1528C12.5773 23.1928 12.6295 23.208 12.6762 23.1961C12.6895 23.1918 12.7029 23.1853 12.7151 23.1777C12.7684 23.1388 12.7795 23.0663 12.7406 23.0145L12.2629 22.3809C12.634 22.1777 12.9795 21.9734 13.3006 21.7723L13.7794 22.4058C13.8094 22.4469 13.8616 22.462 13.9083 22.4491C13.9216 22.4458 13.9349 22.4393 13.9472 22.4307C14.0005 22.3928 14.0127 22.3204 13.9727 22.2685L13.5028 21.6436C13.8638 21.4112 14.1949 21.1809 14.4949 20.9561L15.0159 21.6469C15.0459 21.6869 15.0982 21.7031 15.1448 21.6901C15.1582 21.6858 15.1715 21.6804 15.1837 21.6718C15.237 21.6339 15.2493 21.5604 15.2093 21.5085L14.6849 20.8134C15.0293 20.5485 15.3326 20.2934 15.5981 20.0523L16.1014 20.7172C16.1314 20.7582 16.1836 20.7734 16.2303 20.7604C16.2436 20.7572 16.2569 20.7518 16.268 20.7431C16.3225 20.7042 16.3336 20.6318 16.2947 20.5799L15.7736 19.8891C16.0614 19.6188 16.3003 19.368 16.498 19.1442C16.5058 19.142 16.5136 19.1399 16.5214 19.1388C16.5447 19.1334 16.5647 19.1226 16.5802 19.1074L17.0691 19.7561C17.1002 19.7961 17.1524 19.8123 17.1991 19.7993C17.2124 19.7961 17.2257 19.7896 17.2379 19.7809C17.2913 19.7431 17.3024 19.6696 17.2635 19.6177L16.7324 18.9139C16.7258 18.9053 16.7191 18.8988 16.7113 18.8923C16.9313 18.622 17.0813 18.4058 17.1746 18.2588C17.2202 18.1874 17.2524 18.1139 17.2735 18.0404L18.3534 19.5118C18.5 19.7118 18.47 19.9723 18.2756 20.1777Z" fill="#F58634"/>
</svg>
