<svg width="24" height="25" viewBox="0 0 24 25" fill="none" xmlns="http://www.w3.org/2000/svg">
<path d="M18.97 22.5H4.96997C1.96997 22.5 1.96997 21.15 1.96997 19.5V18.5C1.96997 17.95 2.41997 17.5 2.96997 17.5H20.97C21.52 17.5 21.97 17.95 21.97 18.5V19.5C21.97 21.15 21.97 22.5 18.97 22.5Z" stroke="#BFBFBF" stroke-width="1.5" stroke-linecap="round" stroke-linejoin="round"/>
<path d="M20.72 13.5V17.5H3.27002V13.5C3.27002 9.66 5.98002 6.45 9.59002 5.68C10.13 5.56 10.69 5.5 11.27 5.5H12.72C13.3 5.5 13.87 5.56 14.41 5.68C18.02 6.46 20.72 9.66 20.72 13.5Z" stroke="#BFBFBF" stroke-width="1.5" stroke-linecap="round" stroke-linejoin="round"/>
<path d="M14.5 5C14.5 5.24 14.47 5.46 14.41 5.68C13.87 5.56 13.3 5.5 12.72 5.5H11.27C10.69 5.5 10.13 5.56 9.59 5.68C9.53 5.46 9.5 5.24 9.5 5C9.5 3.62 10.62 2.5 12 2.5C13.38 2.5 14.5 3.62 14.5 5Z" stroke="#BFBFBF" stroke-width="1.5" stroke-linecap="round" stroke-linejoin="round"/>
<path d="M15 11.5H9" stroke="#BFBFBF" stroke-width="1.5" stroke-linecap="round" stroke-linejoin="round"/>
</svg>
