<svg width="24" height="24" viewBox="0 0 24 24" fill="none" xmlns="http://www.w3.org/2000/svg">
<path d="M16.96 6.16992C18.96 7.55992 20.34 9.76992 20.62 12.3199" stroke="#187D44" stroke-width="1.5" stroke-linecap="round" stroke-linejoin="round"/>
<path d="M3.48999 12.3707C3.74999 9.8307 5.10999 7.6207 7.08999 6.2207" stroke="#187D44" stroke-width="1.5" stroke-linecap="round" stroke-linejoin="round"/>
<path d="M8.19 20.9395C9.35 21.5295 10.67 21.8595 12.06 21.8595C13.4 21.8595 14.66 21.5595 15.79 21.0095" stroke="#187D44" stroke-width="1.5" stroke-linecap="round" stroke-linejoin="round"/>
<path d="M12.06 7.70062C13.5954 7.70062 14.84 6.45598 14.84 4.92062C14.84 3.38527 13.5954 2.14062 12.06 2.14062C10.5246 2.14062 9.28 3.38527 9.28 4.92062C9.28 6.45598 10.5246 7.70062 12.06 7.70062Z" stroke="#187D44" stroke-width="1.5" stroke-linecap="round" stroke-linejoin="round"/>
<path d="M4.82999 19.9194C6.36534 19.9194 7.60999 18.6747 7.60999 17.1394C7.60999 15.604 6.36534 14.3594 4.82999 14.3594C3.29464 14.3594 2.04999 15.604 2.04999 17.1394C2.04999 18.6747 3.29464 19.9194 4.82999 19.9194Z" stroke="#187D44" stroke-width="1.5" stroke-linecap="round" stroke-linejoin="round"/>
<path d="M19.17 19.9194C20.7054 19.9194 21.95 18.6747 21.95 17.1394C21.95 15.604 20.7054 14.3594 19.17 14.3594C17.6347 14.3594 16.39 15.604 16.39 17.1394C16.39 18.6747 17.6347 19.9194 19.17 19.9194Z" stroke="#187D44" stroke-width="1.5" stroke-linecap="round" stroke-linejoin="round"/>
</svg>
