<svg width="26" height="24" viewBox="0 0 26 24" fill="none" xmlns="http://www.w3.org/2000/svg">
<g clip-path="url(#clip0_1134_5024)">
<path d="M14.1236 3.86635C14.1084 3.73837 14.1236 3.38513 13.9374 3.07722C13.7512 2.76931 12.493 2.31005 11.6815 1.85987C10.8701 1.40968 10.4455 1.82988 10.1926 2.05515C9.93976 2.28041 7.83387 3.35409 5.92316 4.67222C4.85778 5.40695 2.17878 6.52143 0 7.35276V11.6851C2.67347 9.99842 5.605 7.69519 6.30661 7.05984C7.31914 6.14308 7.97412 5.90282 8.57728 5.94048C9.18045 5.97814 10.1184 6.04509 10.5574 5.73125C10.9965 5.41741 11.5551 5.53597 12.0239 5.35569C12.4927 5.17541 12.7089 4.94979 12.4187 4.55156C12.1286 4.15334 11.1976 4.06337 11.3392 3.96538C11.4808 3.86739 11.6667 3.40745 11.6667 3.40745C11.6667 3.40745 12.2177 3.1895 12.4267 3.30283C12.6357 3.41616 13.2233 3.57343 13.2233 3.74639C13.2233 3.91935 13.32 4.3392 13.32 4.3392C13.32 4.3392 12.7172 4.61817 12.598 4.85773C12.4788 5.0973 12.6498 5.45054 12.9998 5.33128C13.3497 5.21202 13.9902 5.23364 14.109 4.90306C14.2279 4.57249 14.1384 3.99398 14.1236 3.86635Z" fill="#EFC88E"/>
<path d="M10.9902 1.67061C10.9902 1.67061 12.8042 1.36514 13.3082 1.24309C13.8122 1.12104 14.889 0.785584 15.2024 0.89752C15.5157 1.00946 15.3132 1.3348 15.021 1.46696C14.7287 1.59913 13.6506 1.8638 13.6506 1.8638L11.9879 2.42173C11.9879 2.42173 11.0307 2.11801 10.9902 1.67061Z" fill="#EFC88E"/>
<path d="M10.7782 1.69843C10.7782 1.69843 12.6996 1.04076 13.2268 0.81968C13.7539 0.598597 14.8687 0.0497268 15.2287 0.10552C15.5886 0.161314 15.4263 0.534783 15.1309 0.72483C14.8356 0.914878 13.7083 1.39226 13.7083 1.39226L11.9966 2.28217C11.9966 2.28217 10.9015 2.15036 10.7782 1.69843Z" fill="#EFC88E"/>
<path d="M10.4977 1.96122C10.4977 1.96122 11.5807 1.14175 11.8667 0.880222C12.1528 0.618689 12.7345 -0.00794407 12.987 7.62711e-05C13.2396 0.00809661 13.2358 0.36134 13.0945 0.570567C12.9532 0.779793 12.3428 1.34017 12.3428 1.34017L11.4622 2.34411C11.4622 2.34411 10.7039 2.35422 10.4977 1.96122Z" fill="#EFC88E"/>
<path d="M13.6617 19.8578L15.8001 9.91884L13.4596 9.32603L9.50659 8.32488L7.16613 7.73242L4.40353 17.5131L3.83215 18.9229L6.69251 19.6472L10.6455 20.6483L13.5063 21.3729L13.6617 19.8578Z" fill="#B4CE00"/>
<path d="M3.83215 18.9243L6.69251 19.6486L10.6455 20.6498L13.5063 21.3744L13.6617 19.8592L13.6773 19.7867L4.42392 17.4434L4.40353 17.5145L3.83215 18.9243Z" fill="#A6B206"/>
<path d="M13.4596 9.32603L9.50655 8.32488L7.1661 7.73242L6.94397 8.51946L15.628 10.7188L15.8 9.91884L13.4596 9.32603Z" fill="#A6B206"/>
<path d="M13.8113 9.86872C13.8248 9.81122 13.8212 9.75098 13.8009 9.69556C13.7805 9.64014 13.7444 9.59203 13.6971 9.55727C13.6497 9.52252 13.5933 9.50268 13.5348 9.50025C13.4763 9.49782 13.4184 9.51291 13.3684 9.54362C13.3184 9.57433 13.2785 9.61929 13.2537 9.67283C13.2289 9.72638 13.2204 9.78612 13.2292 9.84455C13.238 9.90297 13.2637 9.95746 13.3031 10.0012C13.3425 10.0449 13.3938 10.0758 13.4506 10.0902C13.4887 10.0997 13.5283 10.1015 13.5671 10.0955C13.6059 10.0895 13.6431 10.0758 13.6766 10.0552C13.7102 10.0346 13.7393 10.0076 13.7624 9.97555C13.7855 9.94354 13.8021 9.90724 13.8113 9.86872Z" fill="#BE1E2D"/>
<path d="M13.6969 9.84021C13.7052 9.80554 13.7031 9.76917 13.691 9.73568C13.6788 9.70219 13.6571 9.67309 13.6286 9.65203C13.6001 9.63097 13.566 9.61891 13.5307 9.61736C13.4954 9.61581 13.4605 9.62484 13.4302 9.64332C13.4 9.6618 13.3759 9.68889 13.3609 9.72119C13.3459 9.75349 13.3407 9.78954 13.346 9.82481C13.3513 9.86008 13.3668 9.89297 13.3906 9.91936C13.4143 9.94574 13.4453 9.96443 13.4796 9.97307C13.5025 9.9788 13.5263 9.9799 13.5496 9.97632C13.573 9.97274 13.5954 9.96454 13.6156 9.95219C13.6358 9.93985 13.6533 9.9236 13.6673 9.90439C13.6812 9.88517 13.6913 9.86336 13.6969 9.84021Z" fill="#61030F"/>
<path d="M9.41393 8.75513C9.42779 8.69766 9.42448 8.63733 9.40442 8.58176C9.38436 8.52619 9.34845 8.47785 9.30121 8.44285C9.25398 8.40784 9.19754 8.38774 9.139 8.38507C9.08046 8.3824 9.02245 8.39728 8.97229 8.42784C8.92212 8.4584 8.88203 8.50327 8.85709 8.55679C8.83214 8.61031 8.82346 8.67009 8.83212 8.72859C8.84078 8.78709 8.86641 8.84169 8.90576 8.88551C8.94512 8.92933 8.99645 8.9604 9.05328 8.97482C9.12996 8.99389 9.21101 8.98146 9.27862 8.94028C9.34624 8.89909 9.39491 8.8325 9.41393 8.75513Z" fill="#B4CE00"/>
<path d="M9.29959 8.72726C9.30795 8.6926 9.30595 8.65621 9.29385 8.62269C9.28175 8.58917 9.26009 8.56002 9.23159 8.53891C9.2031 8.5178 9.16905 8.50569 9.13374 8.50409C9.09843 8.50249 9.06344 8.51148 9.03319 8.52993C9.00294 8.54838 8.97878 8.57546 8.96375 8.60775C8.94873 8.64004 8.94351 8.6761 8.94876 8.71138C8.95402 8.74667 8.9695 8.77959 8.99327 8.80599C9.01703 8.8324 9.04801 8.85111 9.0823 8.85977C9.12852 8.87115 9.17731 8.86361 9.21803 8.83878C9.25875 8.81394 9.28807 8.77385 9.29959 8.72726Z" fill="#797C01"/>
<path d="M13.6454 9.79778C13.9408 8.0089 15.0894 4.76589 12.9289 3.89342C10.9457 3.09138 9.77943 6.32707 9.32032 7.83384C9.24846 8.07062 9.21081 8.32413 9.06641 8.52778C8.94654 8.69655 9.20459 8.85278 9.32412 8.68609C9.58079 8.32448 9.65368 7.75259 9.80015 7.32612C9.96288 6.84768 10.1571 6.38077 10.3816 5.92849C10.804 5.08426 11.4846 4.04545 12.4795 4.11694C13.6371 4.20063 13.9328 5.4804 13.8921 6.51676C13.8489 7.60335 13.5318 8.65366 13.3556 9.72211C13.321 9.9268 13.6112 10.0067 13.6454 9.79987V9.79778Z" fill="#726658"/>
<path d="M24.1693 15.1263L18.6182 6.13477L16.4436 7.40721L12.7704 9.55631L10.5961 10.8291L15.5672 20.1599L16.1541 21.6318L18.812 20.0766L22.4849 17.9271L25.1428 16.3719L24.1693 15.1263Z" fill="#F7941E"/>
<path d="M16.1541 21.6316L18.812 20.0764L22.4849 17.9269L25.1428 16.3717L24.1693 15.1261L24.1286 15.0605L15.5309 20.0917L15.5672 20.1597L16.1541 21.6316Z" fill="#E8861A"/>
<path d="M16.4436 7.40721L12.7704 9.55631L10.5961 10.8291L10.9961 11.5799L19.0649 6.85834L18.6182 6.13477L16.4436 7.40721Z" fill="#E8861A"/>
<path d="M17.0958 7.55434C17.0648 7.50066 17.0188 7.45746 16.9635 7.43022C16.9082 7.40298 16.8461 7.39292 16.7851 7.40132C16.7242 7.40971 16.667 7.43618 16.621 7.47738C16.5749 7.51858 16.542 7.57264 16.5264 7.63274C16.5108 7.69283 16.5132 7.75624 16.5333 7.81494C16.5535 7.87364 16.5904 7.925 16.6395 7.96249C16.6885 7.99999 16.7475 8.02195 16.809 8.02558C16.8704 8.02921 16.9315 8.01436 16.9846 7.98291C17.0555 7.94086 17.1071 7.87215 17.1279 7.79182C17.1488 7.71149 17.1372 7.6261 17.0958 7.55434Z" fill="#BE1E2D"/>
<path d="M16.9895 7.61591C16.9707 7.58391 16.943 7.55822 16.9098 7.54209C16.8767 7.52596 16.8395 7.5201 16.803 7.52526C16.7665 7.53041 16.7324 7.54635 16.7049 7.57106C16.6774 7.59577 16.6577 7.62814 16.6484 7.66411C16.6391 7.70008 16.6405 7.73802 16.6525 7.77316C16.6645 7.8083 16.6866 7.83907 16.7159 7.86158C16.7452 7.8841 16.7805 7.89735 16.8172 7.89968C16.854 7.902 16.8906 7.89329 16.9224 7.87465C16.9437 7.86215 16.9623 7.84552 16.9772 7.82573C16.9921 7.80594 17.003 7.78338 17.0092 7.75934C17.0154 7.73529 17.0169 7.71025 17.0135 7.68563C17.0101 7.66102 17.0019 7.63732 16.9895 7.61591Z" fill="#61030F"/>
<path d="M13.0098 9.94455C12.9788 9.89147 12.9329 9.84885 12.8779 9.82205C12.8229 9.79526 12.7613 9.7855 12.7009 9.794C12.6404 9.8025 12.5838 9.82887 12.5381 9.86981C12.4925 9.91074 12.4599 9.9644 12.4444 10.024C12.4289 10.0836 12.4313 10.1465 12.4512 10.2048C12.4711 10.2631 12.5076 10.3141 12.5562 10.3514C12.6048 10.3887 12.6632 10.4107 12.7241 10.4146C12.7851 10.4185 12.8458 10.404 12.8986 10.3731C12.9695 10.3311 13.0211 10.2624 13.0419 10.182C13.0627 10.1017 13.0512 10.0163 13.0098 9.94455Z" fill="#BE1E2D"/>
<path d="M12.9038 10.0065C12.885 9.97453 12.8573 9.94885 12.8241 9.93272C12.791 9.91658 12.7538 9.91073 12.7173 9.91588C12.6808 9.92104 12.6467 9.93697 12.6192 9.96168C12.5917 9.98639 12.572 10.0188 12.5627 10.0547C12.5534 10.0907 12.5548 10.1286 12.5668 10.1638C12.5789 10.1989 12.6009 10.2297 12.6302 10.2522C12.6595 10.2747 12.6948 10.288 12.7315 10.2903C12.7683 10.2926 12.8049 10.2839 12.8367 10.2653C12.858 10.2528 12.8766 10.2361 12.8915 10.2164C12.9064 10.1966 12.9173 10.174 12.9235 10.15C12.9298 10.1259 12.9312 10.1009 12.9278 10.0763C12.9244 10.0516 12.9163 10.0279 12.9038 10.0065Z" fill="#61030F"/>
<path d="M16.9204 7.62232C15.8543 6.06952 14.3796 2.80489 12.1383 3.73664C10.0811 4.59203 11.5361 7.86293 12.2765 9.32333C12.3929 9.55313 12.5473 9.77003 12.5874 10.0281C12.6191 10.2418 12.9252 10.1676 12.8938 9.95834C12.8247 9.49978 12.4682 9.01926 12.272 8.59313C12.0496 8.11642 11.8589 7.62528 11.7013 7.12297C11.4094 6.18145 11.1707 4.90761 11.9652 4.23216C12.8903 3.44617 14.0314 4.18543 14.7465 4.98956C15.4957 5.83274 16.0143 6.84993 16.6513 7.7775C16.7732 7.95499 17.0468 7.80226 16.9238 7.62302L16.9204 7.62232Z" fill="#726658"/>
<g style="mix-blend-mode:multiply" opacity="0.2">
<path d="M7.93609 10.3655L7.26868 19.8037L8.26497 20.1099L19.2214 19.7601L20.3472 19.1917L18.6583 9.09375L7.93609 10.3655Z" fill="#BE1E2D"/>
</g>
<path d="M19.4415 21.4949L18.3019 9.68164L15.4919 9.86681L10.7457 10.1789L7.93616 10.3641L8.32618 22.2262L8.18972 23.9986L11.6242 23.7727L16.3701 23.4602L19.8046 23.2339L19.4415 21.4949Z" fill="#F10077"/>
<path d="M8.1897 24.0004L11.6242 23.7744L16.3701 23.462L19.8046 23.2357L19.4415 21.4966L19.4329 21.4102L8.32339 22.1418L8.32615 22.2279L8.1897 24.0004Z" fill="#C2004C"/>
<path d="M15.4919 9.86681L10.7457 10.1789L7.93616 10.3641L7.96725 11.3188L18.3934 10.6326L18.3019 9.68164L15.4919 9.86681Z" fill="#C2004C"/>
<path d="M16.074 10.3433C16.0688 10.2746 16.0435 10.2091 16.0014 10.155C15.9594 10.1008 15.9024 10.0605 15.8376 10.039C15.7728 10.0174 15.7032 10.0158 15.6375 10.0341C15.5718 10.0524 15.513 10.09 15.4684 10.142C15.4238 10.1941 15.3954 10.2583 15.3869 10.3266C15.3783 10.3948 15.39 10.4641 15.4204 10.5257C15.4508 10.5873 15.4986 10.6385 15.5577 10.6727C15.6169 10.7069 15.6847 10.7227 15.7528 10.7181C15.8446 10.7113 15.93 10.6681 15.9902 10.5978C16.0504 10.5275 16.0806 10.436 16.074 10.3433Z" fill="#F10077"/>
<path d="M15.9369 10.3516C15.9334 10.3106 15.918 10.2716 15.8927 10.2393C15.8674 10.2071 15.8332 10.1831 15.7944 10.1704C15.7557 10.1577 15.7141 10.1568 15.6748 10.1678C15.6355 10.1788 15.6004 10.2013 15.5737 10.2324C15.547 10.2635 15.53 10.3018 15.5248 10.3426C15.5196 10.3835 15.5264 10.4249 15.5444 10.4618C15.5624 10.4987 15.5908 10.5294 15.626 10.5502C15.6612 10.5709 15.7017 10.5806 15.7424 10.5783C15.7699 10.5764 15.7968 10.569 15.8215 10.5565C15.8462 10.5441 15.8683 10.5268 15.8863 10.5058C15.9044 10.4847 15.9182 10.4602 15.9269 10.4338C15.9355 10.4073 15.9389 10.3794 15.9369 10.3516Z" fill="#7C0335"/>
<path d="M10.7948 10.6896C10.7893 10.6212 10.7638 10.5559 10.7217 10.502C10.6796 10.448 10.6226 10.4078 10.558 10.3865C10.4933 10.3651 10.4238 10.3635 10.3582 10.3818C10.2927 10.4001 10.2339 10.4376 10.1894 10.4895C10.1448 10.5414 10.1164 10.6054 10.1078 10.6736C10.0991 10.7417 10.1106 10.8109 10.1408 10.8724C10.1709 10.934 10.2184 10.9852 10.2773 11.0196C10.3362 11.054 10.4038 11.0701 10.4718 11.0659C10.5175 11.0627 10.5621 11.0504 10.6031 11.0298C10.6442 11.0091 10.6807 10.9805 10.7107 10.9455C10.7407 10.9106 10.7636 10.87 10.778 10.8261C10.7925 10.7821 10.7981 10.7358 10.7948 10.6896Z" fill="#F10077"/>
<path d="M10.6576 10.7C10.6543 10.6589 10.6391 10.6198 10.6138 10.5875C10.5886 10.5552 10.5544 10.5311 10.5157 10.5183C10.477 10.5054 10.4353 10.5044 10.396 10.5153C10.3567 10.5262 10.3215 10.5486 10.2947 10.5797C10.2679 10.6107 10.2508 10.649 10.2455 10.6899C10.2402 10.7307 10.247 10.7721 10.2649 10.8091C10.2829 10.8461 10.3112 10.8769 10.3464 10.8976C10.3816 10.9184 10.4221 10.9283 10.4628 10.9259C10.5183 10.922 10.57 10.896 10.6065 10.8536C10.643 10.8113 10.6614 10.756 10.6576 10.7Z" fill="#7C0335"/>
<path d="M15.8644 10.3227C15.56 8.22867 15.6892 4.21152 12.9798 4.02113C10.4925 3.84677 10.3416 7.86008 10.364 9.69744C10.3678 9.98652 10.4158 10.2815 10.3274 10.5601C10.2538 10.7906 10.5972 10.8708 10.6698 10.6431C10.8269 10.1487 10.7043 9.48716 10.7174 8.95991C10.729 8.36981 10.7797 7.78115 10.8691 7.19788C11.0397 6.10746 11.4284 4.70774 12.559 4.42912C13.8749 4.10447 14.656 5.41981 14.9772 6.58624C15.3137 7.80882 15.3327 9.08998 15.5151 10.3408C15.5496 10.5804 15.8996 10.5647 15.8644 10.3227Z" fill="#726658"/>
<path d="M11.2828 4.01622C11.3419 4.00332 11.8356 4.20278 12.0884 4.23661C12.3413 4.27043 12.6757 4.13479 12.9106 4.42282C13.1455 4.71086 12.9282 5.15511 11.6017 5.52405C10.213 5.91112 9.96492 5.93901 9.96492 5.93901C9.96492 5.93901 8.90023 4.54138 11.2828 4.01622Z" fill="#EFC88E"/>
<path d="M20.3076 11.7548C20.3205 11.7903 20.3264 11.8281 20.3249 11.8659C20.3234 11.9038 20.3145 11.9409 20.2988 11.9753C20.283 12.0097 20.2607 12.0406 20.2331 12.0662C20.2055 12.0919 20.1732 12.1118 20.138 12.1248L18.259 12.8222C18.2238 12.8353 18.1864 12.8413 18.149 12.8397C18.1115 12.8382 18.0747 12.8292 18.0406 12.8133C18.0066 12.7974 17.976 12.7749 17.9506 12.747C17.9251 12.7192 17.9054 12.6866 17.8925 12.651L16.625 9.16913C16.5991 9.09735 16.6023 9.01811 16.6341 8.94876C16.6659 8.8794 16.7236 8.8256 16.7947 8.79915L18.6736 8.10172C18.7088 8.08864 18.7462 8.08269 18.7837 8.08422C18.8212 8.08574 18.858 8.09471 18.892 8.11062C18.9261 8.12652 18.9567 8.14904 18.9821 8.1769C19.0075 8.20475 19.0272 8.23739 19.0401 8.27294L20.3076 11.7548Z" fill="#EF4136"/>
<path d="M18.2055 8.76753C18.1612 8.71422 18.1025 8.67522 18.0364 8.65537C17.9704 8.63553 17.9001 8.63571 17.8341 8.65591C17.7682 8.67611 17.7096 8.71543 17.6657 8.76897C17.6217 8.82251 17.5943 8.88792 17.5869 8.95706C17.5795 9.02619 17.5923 9.09601 17.6239 9.15781C17.6555 9.21962 17.7044 9.27069 17.7645 9.30467C17.8246 9.33866 17.8933 9.35405 17.962 9.34894C18.0307 9.34384 18.0964 9.31845 18.1509 9.27595C18.2248 9.21573 18.272 9.12841 18.2822 9.03312C18.2925 8.93783 18.2649 8.84233 18.2055 8.76753Z" fill="#A31627"/>
<path d="M18.0959 8.85262C18.0694 8.82038 18.0341 8.79672 17.9943 8.78457C17.9546 8.77242 17.9122 8.77233 17.8724 8.7843C17.8327 8.79628 17.7973 8.81978 17.7706 8.85191C17.744 8.88403 17.7272 8.92336 17.7225 8.96499C17.7179 9.00662 17.7254 9.04873 17.7442 9.08607C17.763 9.12342 17.7923 9.15436 17.8284 9.17504C17.8645 9.19573 17.9058 9.20525 17.9472 9.20242C17.9887 9.19959 18.0283 9.18454 18.0614 9.15914C18.0836 9.14134 18.1022 9.11929 18.116 9.09423C18.1298 9.06917 18.1385 9.04161 18.1417 9.01313C18.1449 8.98464 18.1425 8.9558 18.1347 8.92826C18.1268 8.90071 18.1136 8.87501 18.0959 8.85262Z" fill="#61030F"/>
<path d="M17.8272 11.7803C17.8846 11.789 17.9434 11.7834 17.9982 11.7639C18.0849 11.7318 18.1205 11.6677 18.0997 11.6108C18.0766 11.5474 18.013 11.5348 17.9215 11.57L17.8942 11.5802L17.8731 11.4515L17.898 11.4421C17.9709 11.4152 18.0434 11.3549 18.0203 11.2914C18.0072 11.2566 17.9716 11.2384 17.9108 11.2611C17.8601 11.2792 17.8146 11.3098 17.7785 11.35L17.7139 11.2398C17.7637 11.1854 17.8256 11.1437 17.8945 11.1181C18.0127 11.0742 18.1364 11.0909 18.1768 11.2035C18.2086 11.2911 18.1626 11.3814 18.0832 11.4368V11.4396C18.1211 11.433 18.1602 11.4405 18.1932 11.4606C18.2261 11.4808 18.2507 11.5124 18.2624 11.5495C18.317 11.6994 18.1975 11.8406 18.0434 11.8982C17.9533 11.933 17.8672 11.9386 17.8265 11.924L17.8272 11.7803Z" fill="white"/>
<path d="M18.8162 11.0503C18.8974 11.2725 18.8891 11.5811 18.6666 11.6634C18.5205 11.7178 18.4214 11.6254 18.3699 11.4831C18.288 11.2589 18.3081 10.9618 18.525 10.8816C18.6767 10.8251 18.7703 10.9234 18.8162 11.0503ZM18.5247 11.4318C18.5437 11.4845 18.5792 11.5542 18.6407 11.5316C18.7482 11.4918 18.697 11.2027 18.6628 11.1086C18.6456 11.0615 18.6124 10.9907 18.553 11.0127C18.4473 11.0517 18.4867 11.3279 18.5247 11.4318Z" fill="white"/>
<path d="M19.2518 10.7965C19.3088 10.9531 19.2518 11.1079 19.1254 11.1554C19.0321 11.1902 18.9423 11.1522 18.9036 11.0462C18.8518 10.9039 18.8978 10.7428 19.0363 10.6916C19.1351 10.655 19.2176 10.7024 19.2518 10.7965ZM19.1828 11.4723L19.4377 10.5427L19.5296 10.5078L19.2764 11.4378L19.1828 11.4723ZM19.0249 11.0054C19.0401 11.0469 19.0684 11.0752 19.105 11.0602C19.1693 11.0365 19.1558 10.9022 19.1334 10.8398C19.1195 10.8025 19.0933 10.7739 19.0553 10.7878C18.9914 10.8112 19 10.9385 19.0238 11.0054H19.0249ZM19.8098 10.9242C19.8668 11.0807 19.8115 11.238 19.6826 11.2844C19.5904 11.3193 19.5006 11.2809 19.4619 11.1749C19.4104 11.0337 19.4557 10.8705 19.5945 10.8189C19.6909 10.7826 19.7745 10.83 19.8087 10.9242H19.8098ZM19.5824 11.1334C19.598 11.1759 19.6256 11.2031 19.6626 11.1878C19.7265 11.1644 19.713 11.0288 19.6902 10.9667C19.6768 10.9294 19.6505 10.9008 19.6125 10.9148C19.5482 10.9388 19.5569 11.0657 19.5814 11.1355L19.5824 11.1334Z" fill="white"/>
<path d="M17.5594 10.9238C17.6134 10.9335 17.6689 10.9286 17.7204 10.9095C17.7719 10.8904 17.8099 10.8489 17.7922 10.7997C17.7791 10.7648 17.7439 10.7509 17.6762 10.7422C17.5967 10.7307 17.5166 10.7056 17.4869 10.624C17.4409 10.4974 17.5214 10.3799 17.6575 10.3296C17.7072 10.3082 17.7617 10.3004 17.8154 10.307V10.4336C17.7726 10.4282 17.7292 10.4335 17.6889 10.4489C17.6275 10.4716 17.6067 10.5152 17.6199 10.5497C17.633 10.5842 17.6789 10.5943 17.7422 10.6044C17.8323 10.6163 17.8986 10.6498 17.9259 10.724C17.9767 10.8635 17.8883 10.9772 17.7504 11.0285C17.6893 11.0551 17.6217 11.0625 17.5563 11.0497L17.5594 10.9238Z" fill="white"/>
<path d="M18.1616 10.6824L18.147 10.8724L18.0061 10.9247L18.08 10.1862L18.2503 10.123L18.5509 10.7207L18.4127 10.7723L18.3408 10.6144L18.1616 10.6824ZM18.2973 10.516L18.2362 10.3856C18.221 10.3525 18.1992 10.3037 18.1826 10.2664H18.1806C18.1806 10.3103 18.1806 10.3651 18.1757 10.4059L18.1629 10.5635L18.2973 10.516Z" fill="white"/>
<path d="M18.5084 10.0257L18.6407 9.97656L18.7305 10.5212L18.9689 10.433L18.9893 10.5582L18.62 10.696L18.5084 10.0257Z" fill="white"/>
<path d="M19.373 10.1155L19.1519 10.1975L19.1785 10.3593L19.4262 10.2676L19.4466 10.3896L19.0666 10.5308L18.9564 9.86061L19.3236 9.72461L19.3433 9.84701L19.1095 9.93384L19.1323 10.0772L19.3533 9.99521L19.373 10.1155Z" fill="white"/>
<path d="M19.1647 9.38744L17.244 10.0996L17.2851 10.2125L19.2058 9.50037L19.1647 9.38744Z" fill="white"/>
<path d="M19.8935 11.3913L17.9729 12.1035L18.014 12.2164L19.9346 11.5043L19.8935 11.3913Z" fill="white"/>
<path d="M18.0959 8.8477C18.0959 8.8477 17.9408 8.94499 17.6302 8.38845C17.3196 7.83191 16.8678 6.66547 16.4512 6.88446L16.551 7.05045C16.551 7.05045 16.7092 7.00895 16.931 7.27537C17.1528 7.54178 17.6641 9.06321 18.1401 9.02764C18.1511 8.99659 18.1528 8.96294 18.1449 8.93093C18.1371 8.89891 18.12 8.86996 18.0959 8.8477Z" fill="#3C2415"/>
<path d="M16.2225 7.13194C16.2225 7.13194 16.1417 7.24457 16.2812 7.48728C16.5576 7.96675 17.4364 8.39392 17.7238 9.04427C17.7238 9.04427 17.7584 9.17469 17.8472 9.17469C17.936 9.17469 17.7297 8.71857 17.5245 8.51214C17.3193 8.3057 16.3458 7.50088 16.35 7.32234C16.3514 7.32164 16.2577 7.11416 16.2225 7.13194Z" fill="#3C2415"/>
<path d="M17.29 8.61951L17.3546 8.58987C17.3583 8.54597 17.3739 8.50395 17.3998 8.46845C17.4256 8.43294 17.4607 8.40533 17.5011 8.38866C17.5188 8.37817 17.5385 8.37163 17.5589 8.3695C17.5793 8.36737 17.6 8.36968 17.6194 8.3763C17.6389 8.38291 17.6567 8.39366 17.6717 8.40783C17.6867 8.42199 17.6984 8.43924 17.7063 8.45841L17.8413 8.41098C17.8413 8.41098 17.6596 8.1505 17.4306 8.30463C17.2015 8.45876 17.29 8.61951 17.29 8.61951Z" fill="#3C2415"/>
</g>
<defs>
<clipPath id="clip0_1134_5024">
<rect width="25.1429" height="24" fill="white"/>
</clipPath>
</defs>
</svg>
