<svg width="24" height="24" viewBox="0 0 24 24" fill="none" xmlns="http://www.w3.org/2000/svg">
<path d="M13.73 3.51063L15.49 7.03063C15.73 7.52063 16.37 7.99063 16.91 8.08063L20.1 8.61062C22.14 8.95062 22.62 10.4306 21.15 11.8906L18.67 14.3706C18.25 14.7906 18.02 15.6006 18.15 16.1806L18.86 19.2506C19.42 21.6806 18.13 22.6206 15.98 21.3506L12.99 19.5806C12.45 19.2606 11.56 19.2606 11.01 19.5806L8.02 21.3506C5.88 22.6206 4.58 21.6706 5.14 19.2506L5.85 16.1806C5.98 15.6006 5.75 14.7906 5.33 14.3706L2.85 11.8906C1.39 10.4306 1.86 8.95062 3.9 8.61062L7.09 8.08063C7.62 7.99063 8.26 7.52063 8.5 7.03063L10.26 3.51063C11.22 1.60063 12.78 1.60063 13.73 3.51063Z" stroke="#187D44" stroke-width="1.5" stroke-linecap="round" stroke-linejoin="round"/>
</svg>
